<mxfile host="Electron" modified="2024-03-02T21:55:48.050Z" agent="Mozilla/5.0 (Windows NT 10.0; Win64; x64) AppleWebKit/537.36 (KHTML, like Gecko) draw.io/23.1.5 Chrome/120.0.6099.109 Electron/28.1.0 Safari/537.36" etag="Gh2syChc7UE1fq3Z4SSO" version="23.1.5" type="device" pages="19">
  <diagram name="CharatcerMove" id="2YBvvXClWsGukQMizWep">
    <mxGraphModel dx="1290" dy="629" grid="1" gridSize="10" guides="1" tooltips="1" connect="1" arrows="1" fold="1" page="1" pageScale="1" pageWidth="850" pageHeight="1100" math="0" shadow="0">
      <root>
        <mxCell id="0" />
        <mxCell id="1" parent="0" />
        <mxCell id="aM9ryv3xv72pqoxQDRHE-1" value="c: Character" style="shape=umlLifeline;perimeter=lifelinePerimeter;whiteSpace=wrap;html=1;container=0;dropTarget=0;collapsible=0;recursiveResize=0;outlineConnect=0;portConstraint=eastwest;newEdgeStyle={&quot;edgeStyle&quot;:&quot;elbowEdgeStyle&quot;,&quot;elbow&quot;:&quot;vertical&quot;,&quot;curved&quot;:0,&quot;rounded&quot;:0};" parent="1" vertex="1">
          <mxGeometry x="60" y="50" width="100" height="280" as="geometry" />
        </mxCell>
        <mxCell id="aM9ryv3xv72pqoxQDRHE-2" value="" style="html=1;points=[];perimeter=orthogonalPerimeter;outlineConnect=0;targetShapes=umlLifeline;portConstraint=eastwest;newEdgeStyle={&quot;edgeStyle&quot;:&quot;elbowEdgeStyle&quot;,&quot;elbow&quot;:&quot;vertical&quot;,&quot;curved&quot;:0,&quot;rounded&quot;:0};" parent="aM9ryv3xv72pqoxQDRHE-1" vertex="1">
          <mxGeometry x="45" y="70" width="10" height="190" as="geometry" />
        </mxCell>
        <mxCell id="aM9ryv3xv72pqoxQDRHE-3" value="move(r1, r2)" style="html=1;verticalAlign=bottom;startArrow=none;endArrow=block;startSize=8;edgeStyle=elbowEdgeStyle;elbow=vertical;curved=0;rounded=0;startFill=0;" parent="aM9ryv3xv72pqoxQDRHE-1" target="aM9ryv3xv72pqoxQDRHE-2" edge="1">
          <mxGeometry relative="1" as="geometry">
            <mxPoint x="-15" y="70" as="sourcePoint" />
            <Array as="points">
              <mxPoint x="-40" y="70" />
            </Array>
          </mxGeometry>
        </mxCell>
        <mxCell id="aM9ryv3xv72pqoxQDRHE-5" value="r2: Room" style="shape=umlLifeline;perimeter=lifelinePerimeter;whiteSpace=wrap;html=1;container=0;dropTarget=0;collapsible=0;recursiveResize=0;outlineConnect=0;portConstraint=eastwest;newEdgeStyle={&quot;edgeStyle&quot;:&quot;elbowEdgeStyle&quot;,&quot;elbow&quot;:&quot;vertical&quot;,&quot;curved&quot;:0,&quot;rounded&quot;:0};" parent="1" vertex="1">
          <mxGeometry x="240" y="50" width="100" height="280" as="geometry" />
        </mxCell>
        <mxCell id="aM9ryv3xv72pqoxQDRHE-6" value="" style="html=1;points=[];perimeter=orthogonalPerimeter;outlineConnect=0;targetShapes=umlLifeline;portConstraint=eastwest;newEdgeStyle={&quot;edgeStyle&quot;:&quot;elbowEdgeStyle&quot;,&quot;elbow&quot;:&quot;vertical&quot;,&quot;curved&quot;:0,&quot;rounded&quot;:0};" parent="aM9ryv3xv72pqoxQDRHE-5" vertex="1">
          <mxGeometry x="45" y="80" width="10" height="30" as="geometry" />
        </mxCell>
        <mxCell id="-g9R-0nJ1j3q_HA96TBS-6" value="" style="html=1;points=[[0,0,0,0,5],[0,1,0,0,-5],[1,0,0,0,5],[1,1,0,0,-5]];perimeter=orthogonalPerimeter;outlineConnect=0;targetShapes=umlLifeline;portConstraint=eastwest;newEdgeStyle={&quot;curved&quot;:0,&quot;rounded&quot;:0};" parent="aM9ryv3xv72pqoxQDRHE-5" vertex="1">
          <mxGeometry x="45" y="170" width="10" height="40" as="geometry" />
        </mxCell>
        <mxCell id="aM9ryv3xv72pqoxQDRHE-7" value="isAccessible(r2)" style="html=1;verticalAlign=bottom;endArrow=block;edgeStyle=elbowEdgeStyle;elbow=vertical;curved=0;rounded=0;" parent="1" source="aM9ryv3xv72pqoxQDRHE-2" target="aM9ryv3xv72pqoxQDRHE-6" edge="1">
          <mxGeometry relative="1" as="geometry">
            <mxPoint x="215" y="140" as="sourcePoint" />
            <Array as="points">
              <mxPoint x="200" y="130" />
            </Array>
          </mxGeometry>
        </mxCell>
        <mxCell id="-g9R-0nJ1j3q_HA96TBS-1" value="r1: Room" style="shape=umlLifeline;perimeter=lifelinePerimeter;whiteSpace=wrap;html=1;container=1;dropTarget=0;collapsible=0;recursiveResize=0;outlineConnect=0;portConstraint=eastwest;newEdgeStyle={&quot;curved&quot;:0,&quot;rounded&quot;:0};" parent="1" vertex="1">
          <mxGeometry x="360" y="50" width="100" height="280" as="geometry" />
        </mxCell>
        <mxCell id="-g9R-0nJ1j3q_HA96TBS-2" value="b: bool" style="html=1;verticalAlign=bottom;endArrow=open;dashed=1;endSize=8;curved=0;rounded=0;" parent="1" source="aM9ryv3xv72pqoxQDRHE-5" target="aM9ryv3xv72pqoxQDRHE-2" edge="1">
          <mxGeometry relative="1" as="geometry">
            <mxPoint x="260" y="200" as="sourcePoint" />
            <mxPoint x="180" y="200" as="targetPoint" />
            <Array as="points">
              <mxPoint x="200" y="150" />
            </Array>
          </mxGeometry>
        </mxCell>
        <mxCell id="-g9R-0nJ1j3q_HA96TBS-3" value="opt" style="shape=umlFrame;whiteSpace=wrap;html=1;pointerEvents=0;" parent="1" vertex="1">
          <mxGeometry x="30" y="160" width="470" height="130" as="geometry" />
        </mxCell>
        <mxCell id="-g9R-0nJ1j3q_HA96TBS-4" value="[b == true]" style="text;html=1;align=center;verticalAlign=middle;resizable=0;points=[];autosize=1;strokeColor=none;fillColor=none;" parent="1" vertex="1">
          <mxGeometry x="20" y="218" width="80" height="30" as="geometry" />
        </mxCell>
        <mxCell id="-g9R-0nJ1j3q_HA96TBS-5" value="addCharacter(c)" style="html=1;verticalAlign=bottom;endArrow=block;curved=0;rounded=0;" parent="1" edge="1">
          <mxGeometry width="80" relative="1" as="geometry">
            <mxPoint x="115" y="229.65999999999997" as="sourcePoint" />
            <mxPoint x="285.0000000000001" y="229.65999999999997" as="targetPoint" />
          </mxGeometry>
        </mxCell>
        <mxCell id="-g9R-0nJ1j3q_HA96TBS-7" value="" style="html=1;verticalAlign=bottom;endArrow=open;dashed=1;endSize=8;curved=0;rounded=0;" parent="1" edge="1">
          <mxGeometry relative="1" as="geometry">
            <mxPoint x="290.0000000000001" y="260" as="sourcePoint" />
            <mxPoint x="115" y="260" as="targetPoint" />
            <Array as="points">
              <mxPoint x="205" y="260" />
            </Array>
          </mxGeometry>
        </mxCell>
        <mxCell id="-g9R-0nJ1j3q_HA96TBS-9" value="" style="html=1;points=[[0,0,0,0,5],[0,1,0,0,-5],[1,0,0,0,5],[1,1,0,0,-5]];perimeter=orthogonalPerimeter;outlineConnect=0;targetShapes=umlLifeline;portConstraint=eastwest;newEdgeStyle={&quot;curved&quot;:0,&quot;rounded&quot;:0};" parent="1" vertex="1">
          <mxGeometry x="405" y="180" width="10" height="40" as="geometry" />
        </mxCell>
        <mxCell id="-g9R-0nJ1j3q_HA96TBS-10" value="removeCharacter(c)" style="html=1;verticalAlign=bottom;endArrow=block;curved=0;rounded=0;entryX=0;entryY=0;entryDx=0;entryDy=5;entryPerimeter=0;" parent="1" target="-g9R-0nJ1j3q_HA96TBS-9" edge="1">
          <mxGeometry width="80" relative="1" as="geometry">
            <mxPoint x="115" y="185" as="sourcePoint" />
            <mxPoint x="295.0000000000001" y="188" as="targetPoint" />
          </mxGeometry>
        </mxCell>
        <mxCell id="-g9R-0nJ1j3q_HA96TBS-11" value="" style="html=1;verticalAlign=bottom;endArrow=open;dashed=1;endSize=8;curved=0;rounded=0;" parent="1" edge="1">
          <mxGeometry relative="1" as="geometry">
            <mxPoint x="405" y="210" as="sourcePoint" />
            <mxPoint x="115" y="210" as="targetPoint" />
          </mxGeometry>
        </mxCell>
        <mxCell id="0kWUIAx3OZnX0tPVKVT1-2" value="" style="html=1;verticalAlign=bottom;endArrow=open;dashed=1;endSize=8;curved=0;rounded=0;entryX=0;entryY=0.901;entryDx=0;entryDy=0;entryPerimeter=0;" parent="1" target="f_Yk1nSePG5QuItJcE1U-1" edge="1">
          <mxGeometry relative="1" as="geometry">
            <mxPoint x="110" y="310" as="sourcePoint" />
            <mxPoint x="30" y="310" as="targetPoint" />
          </mxGeometry>
        </mxCell>
        <mxCell id="f_Yk1nSePG5QuItJcE1U-1" value="&lt;b&gt;sd&lt;/b&gt; Character Move" style="shape=umlFrame;whiteSpace=wrap;html=1;pointerEvents=0;width=190;height=30;" parent="1" vertex="1">
          <mxGeometry x="20" y="10" width="530" height="330" as="geometry" />
        </mxCell>
      </root>
    </mxGraphModel>
  </diagram>
  <diagram id="oP12XMrVPe4MuxAEgVs0" name="StudentItemPickUp">
    <mxGraphModel dx="1050" dy="629" grid="1" gridSize="10" guides="1" tooltips="1" connect="1" arrows="1" fold="1" page="1" pageScale="1" pageWidth="827" pageHeight="1169" math="0" shadow="0">
      <root>
        <mxCell id="0" />
        <mxCell id="1" parent="0" />
        <mxCell id="v0VW3kEOeEPae2AhgNna-1" value="s: Student" style="shape=umlLifeline;perimeter=lifelinePerimeter;whiteSpace=wrap;html=1;container=1;dropTarget=0;collapsible=0;recursiveResize=0;outlineConnect=0;portConstraint=eastwest;newEdgeStyle={&quot;curved&quot;:0,&quot;rounded&quot;:0};" parent="1" vertex="1">
          <mxGeometry x="60" y="50" width="100" height="270" as="geometry" />
        </mxCell>
        <mxCell id="v0VW3kEOeEPae2AhgNna-4" value="" style="html=1;points=[[0,0,0,0,5],[0,1,0,0,-5],[1,0,0,0,5],[1,1,0,0,-5]];perimeter=orthogonalPerimeter;outlineConnect=0;targetShapes=umlLifeline;portConstraint=eastwest;newEdgeStyle={&quot;curved&quot;:0,&quot;rounded&quot;:0};" parent="v0VW3kEOeEPae2AhgNna-1" vertex="1">
          <mxGeometry x="45" y="50" width="10" height="200" as="geometry" />
        </mxCell>
        <mxCell id="v0VW3kEOeEPae2AhgNna-2" value="r: Room" style="shape=umlLifeline;perimeter=lifelinePerimeter;whiteSpace=wrap;html=1;container=1;dropTarget=0;collapsible=0;recursiveResize=0;outlineConnect=0;portConstraint=eastwest;newEdgeStyle={&quot;curved&quot;:0,&quot;rounded&quot;:0};" parent="1" vertex="1">
          <mxGeometry x="230" y="50" width="100" height="270" as="geometry" />
        </mxCell>
        <mxCell id="v0VW3kEOeEPae2AhgNna-6" value="" style="html=1;points=[[0,0,0,0,5],[0,1,0,0,-5],[1,0,0,0,5],[1,1,0,0,-5]];perimeter=orthogonalPerimeter;outlineConnect=0;targetShapes=umlLifeline;portConstraint=eastwest;newEdgeStyle={&quot;curved&quot;:0,&quot;rounded&quot;:0};" parent="v0VW3kEOeEPae2AhgNna-2" vertex="1">
          <mxGeometry x="45" y="80" width="10" height="40" as="geometry" />
        </mxCell>
        <mxCell id="v0VW3kEOeEPae2AhgNna-3" value="i :Item" style="shape=umlLifeline;perimeter=lifelinePerimeter;whiteSpace=wrap;html=1;container=1;dropTarget=0;collapsible=0;recursiveResize=0;outlineConnect=0;portConstraint=eastwest;newEdgeStyle={&quot;curved&quot;:0,&quot;rounded&quot;:0};" parent="1" vertex="1">
          <mxGeometry x="364" y="50" width="100" height="270" as="geometry" />
        </mxCell>
        <mxCell id="v0VW3kEOeEPae2AhgNna-10" value="" style="html=1;points=[[0,0,0,0,5],[0,1,0,0,-5],[1,0,0,0,5],[1,1,0,0,-5]];perimeter=orthogonalPerimeter;outlineConnect=0;targetShapes=umlLifeline;portConstraint=eastwest;newEdgeStyle={&quot;curved&quot;:0,&quot;rounded&quot;:0};" parent="v0VW3kEOeEPae2AhgNna-3" vertex="1">
          <mxGeometry x="45" y="140" width="10" height="80" as="geometry" />
        </mxCell>
        <mxCell id="v0VW3kEOeEPae2AhgNna-5" value="removeItem(i)" style="html=1;verticalAlign=bottom;endArrow=block;curved=0;rounded=0;" parent="1" edge="1">
          <mxGeometry width="80" relative="1" as="geometry">
            <mxPoint x="110" y="130" as="sourcePoint" />
            <mxPoint x="279.5000000000002" y="130" as="targetPoint" />
            <Array as="points">
              <mxPoint x="150" y="130" />
            </Array>
          </mxGeometry>
        </mxCell>
        <mxCell id="v0VW3kEOeEPae2AhgNna-7" value="" style="html=1;verticalAlign=bottom;endArrow=open;dashed=1;endSize=8;curved=0;rounded=0;exitX=0;exitY=1;exitDx=0;exitDy=-5;exitPerimeter=0;" parent="1" source="v0VW3kEOeEPae2AhgNna-6" target="v0VW3kEOeEPae2AhgNna-4" edge="1">
          <mxGeometry relative="1" as="geometry">
            <mxPoint x="230" y="150" as="sourcePoint" />
            <mxPoint x="150" y="150" as="targetPoint" />
          </mxGeometry>
        </mxCell>
        <mxCell id="v0VW3kEOeEPae2AhgNna-8" value="pickUpItem(i)" style="html=1;verticalAlign=bottom;endArrow=block;curved=0;rounded=0;entryX=0;entryY=0;entryDx=0;entryDy=5;entryPerimeter=0;" parent="1" edge="1">
          <mxGeometry width="80" relative="1" as="geometry">
            <mxPoint x="10" y="120" as="sourcePoint" />
            <mxPoint x="105.00000000000011" y="120" as="targetPoint" />
          </mxGeometry>
        </mxCell>
        <mxCell id="q2mQUFH5u7X6DuZXXs0P-1" value="" style="html=1;verticalAlign=bottom;endArrow=open;dashed=1;endSize=8;curved=0;rounded=0;" parent="1" edge="1">
          <mxGeometry relative="1" as="geometry">
            <mxPoint x="409" y="270" as="sourcePoint" />
            <mxPoint x="115.00000000000011" y="270" as="targetPoint" />
          </mxGeometry>
        </mxCell>
        <mxCell id="iCZsf-TyF-9mSO3aUfkV-1" value="onPickedUp(s)" style="html=1;verticalAlign=bottom;endArrow=block;curved=0;rounded=0;exitX=0;exitY=0;exitDx=0;exitDy=5;exitPerimeter=0;" parent="1" source="v0VW3kEOeEPae2AhgNna-10" target="v0VW3kEOeEPae2AhgNna-4" edge="1">
          <mxGeometry width="80" relative="1" as="geometry">
            <mxPoint x="90" y="150" as="sourcePoint" />
            <mxPoint x="210" y="250" as="targetPoint" />
          </mxGeometry>
        </mxCell>
        <mxCell id="JJ_CnbcOATXaJaSS_yR7-1" value="" style="html=1;verticalAlign=bottom;endArrow=open;dashed=1;endSize=8;curved=0;rounded=0;entryX=0.003;entryY=0.863;entryDx=0;entryDy=0;entryPerimeter=0;" parent="1" target="W1TX2BRISMoJcEWAdiGO-1" edge="1">
          <mxGeometry relative="1" as="geometry">
            <mxPoint x="110" y="300" as="sourcePoint" />
            <mxPoint x="30" y="300" as="targetPoint" />
          </mxGeometry>
        </mxCell>
        <mxCell id="W1TX2BRISMoJcEWAdiGO-1" value="&lt;b&gt;sd&lt;/b&gt;&amp;nbsp;Student Item Pick Up" style="shape=umlFrame;whiteSpace=wrap;html=1;pointerEvents=0;width=190;height=30;" parent="1" vertex="1">
          <mxGeometry x="10" y="10" width="530" height="330" as="geometry" />
        </mxCell>
      </root>
    </mxGraphModel>
  </diagram>
  <diagram name="InstructorItemPuckUp" id="4jgPU7i3_wvB3pA2sX_O">
    <mxGraphModel dx="1050" dy="629" grid="1" gridSize="10" guides="1" tooltips="1" connect="1" arrows="1" fold="1" page="1" pageScale="1" pageWidth="827" pageHeight="1169" math="0" shadow="0">
      <root>
        <mxCell id="x9MJhG8bKUskiO-uLM30-0" />
        <mxCell id="x9MJhG8bKUskiO-uLM30-1" parent="x9MJhG8bKUskiO-uLM30-0" />
        <mxCell id="x9MJhG8bKUskiO-uLM30-2" value="i1: Instructor" style="shape=umlLifeline;perimeter=lifelinePerimeter;whiteSpace=wrap;html=1;container=1;dropTarget=0;collapsible=0;recursiveResize=0;outlineConnect=0;portConstraint=eastwest;newEdgeStyle={&quot;curved&quot;:0,&quot;rounded&quot;:0};" parent="x9MJhG8bKUskiO-uLM30-1" vertex="1">
          <mxGeometry x="90.58" y="50" width="100" height="260" as="geometry" />
        </mxCell>
        <mxCell id="x9MJhG8bKUskiO-uLM30-3" value="" style="html=1;points=[[0,0,0,0,5],[0,1,0,0,-5],[1,0,0,0,5],[1,1,0,0,-5]];perimeter=orthogonalPerimeter;outlineConnect=0;targetShapes=umlLifeline;portConstraint=eastwest;newEdgeStyle={&quot;curved&quot;:0,&quot;rounded&quot;:0};" parent="x9MJhG8bKUskiO-uLM30-2" vertex="1">
          <mxGeometry x="45" y="50" width="10" height="200" as="geometry" />
        </mxCell>
        <mxCell id="x9MJhG8bKUskiO-uLM30-4" value="r: Room" style="shape=umlLifeline;perimeter=lifelinePerimeter;whiteSpace=wrap;html=1;container=1;dropTarget=0;collapsible=0;recursiveResize=0;outlineConnect=0;portConstraint=eastwest;newEdgeStyle={&quot;curved&quot;:0,&quot;rounded&quot;:0};" parent="x9MJhG8bKUskiO-uLM30-1" vertex="1">
          <mxGeometry x="394.58" y="50" width="100" height="260" as="geometry" />
        </mxCell>
        <mxCell id="x9MJhG8bKUskiO-uLM30-5" value="" style="html=1;points=[[0,0,0,0,5],[0,1,0,0,-5],[1,0,0,0,5],[1,1,0,0,-5]];perimeter=orthogonalPerimeter;outlineConnect=0;targetShapes=umlLifeline;portConstraint=eastwest;newEdgeStyle={&quot;curved&quot;:0,&quot;rounded&quot;:0};" parent="x9MJhG8bKUskiO-uLM30-4" vertex="1">
          <mxGeometry x="45" y="130" width="10" height="50" as="geometry" />
        </mxCell>
        <mxCell id="x9MJhG8bKUskiO-uLM30-10" value="pickUpItem(i2)" style="html=1;verticalAlign=bottom;endArrow=block;curved=0;rounded=0;entryX=0;entryY=0;entryDx=0;entryDy=5;entryPerimeter=0;exitX=-0.001;exitY=0.308;exitDx=0;exitDy=0;exitPerimeter=0;" parent="x9MJhG8bKUskiO-uLM30-1" source="ymfbsrQ_5wDEe5hcKr6s-0" edge="1">
          <mxGeometry width="80" relative="1" as="geometry">
            <mxPoint x="40.58" y="110" as="sourcePoint" />
            <mxPoint x="135.5800000000001" y="110" as="targetPoint" />
          </mxGeometry>
        </mxCell>
        <mxCell id="tIAvtDiNhwwZL0XE_o-g-0" value="i2: Item" style="shape=umlLifeline;perimeter=lifelinePerimeter;whiteSpace=wrap;html=1;container=1;dropTarget=0;collapsible=0;recursiveResize=0;outlineConnect=0;portConstraint=eastwest;newEdgeStyle={&quot;curved&quot;:0,&quot;rounded&quot;:0};" parent="x9MJhG8bKUskiO-uLM30-1" vertex="1">
          <mxGeometry x="230.57999999999998" y="50" width="100" height="260" as="geometry" />
        </mxCell>
        <mxCell id="tIAvtDiNhwwZL0XE_o-g-1" value="" style="html=1;points=[[0,0,0,0,5],[0,1,0,0,-5],[1,0,0,0,5],[1,1,0,0,-5]];perimeter=orthogonalPerimeter;outlineConnect=0;targetShapes=umlLifeline;portConstraint=eastwest;newEdgeStyle={&quot;curved&quot;:0,&quot;rounded&quot;:0};" parent="tIAvtDiNhwwZL0XE_o-g-0" vertex="1">
          <mxGeometry x="45" y="60" width="10" height="30" as="geometry" />
        </mxCell>
        <mxCell id="tIAvtDiNhwwZL0XE_o-g-2" value="canInstructorPickUp()" style="html=1;verticalAlign=bottom;endArrow=block;curved=0;rounded=0;entryX=0;entryY=0;entryDx=0;entryDy=5;" parent="x9MJhG8bKUskiO-uLM30-1" source="x9MJhG8bKUskiO-uLM30-3" target="tIAvtDiNhwwZL0XE_o-g-1" edge="1">
          <mxGeometry relative="1" as="geometry">
            <mxPoint x="200.57999999999998" y="110" as="sourcePoint" />
          </mxGeometry>
        </mxCell>
        <mxCell id="tIAvtDiNhwwZL0XE_o-g-3" value="b: bool" style="html=1;verticalAlign=bottom;endArrow=open;dashed=1;endSize=8;curved=0;rounded=0;exitX=0;exitY=1;exitDx=0;exitDy=-5;" parent="x9MJhG8bKUskiO-uLM30-1" source="tIAvtDiNhwwZL0XE_o-g-1" target="x9MJhG8bKUskiO-uLM30-3" edge="1">
          <mxGeometry relative="1" as="geometry">
            <mxPoint x="200.57999999999998" y="180" as="targetPoint" />
          </mxGeometry>
        </mxCell>
        <mxCell id="YqodWIC0bGgzGD3sHFd0-0" value="opt" style="shape=umlFrame;whiteSpace=wrap;html=1;pointerEvents=0;" parent="x9MJhG8bKUskiO-uLM30-1" vertex="1">
          <mxGeometry x="50.58" y="150" width="450" height="130" as="geometry" />
        </mxCell>
        <mxCell id="YqodWIC0bGgzGD3sHFd0-1" value="[b == true]" style="text;html=1;align=center;verticalAlign=middle;resizable=0;points=[];autosize=1;strokeColor=none;fillColor=none;" parent="x9MJhG8bKUskiO-uLM30-1" vertex="1">
          <mxGeometry x="55.58" y="185" width="80" height="30" as="geometry" />
        </mxCell>
        <mxCell id="YqodWIC0bGgzGD3sHFd0-2" value="removeItem(i2)" style="html=1;verticalAlign=bottom;endArrow=block;curved=0;rounded=0;entryX=0;entryY=0;entryDx=0;entryDy=5;entryPerimeter=0;" parent="x9MJhG8bKUskiO-uLM30-1" source="x9MJhG8bKUskiO-uLM30-3" target="x9MJhG8bKUskiO-uLM30-5" edge="1">
          <mxGeometry width="80" relative="1" as="geometry">
            <mxPoint x="190.57999999999998" y="199.57999999999998" as="sourcePoint" />
            <mxPoint x="270.58" y="199.57999999999998" as="targetPoint" />
          </mxGeometry>
        </mxCell>
        <mxCell id="YqodWIC0bGgzGD3sHFd0-3" value="" style="html=1;verticalAlign=bottom;endArrow=open;dashed=1;endSize=8;curved=0;rounded=0;exitX=0;exitY=1;exitDx=0;exitDy=-5;exitPerimeter=0;" parent="x9MJhG8bKUskiO-uLM30-1" source="x9MJhG8bKUskiO-uLM30-5" target="x9MJhG8bKUskiO-uLM30-3" edge="1">
          <mxGeometry relative="1" as="geometry">
            <mxPoint x="340.58" y="215" as="sourcePoint" />
            <mxPoint x="260.58" y="215" as="targetPoint" />
          </mxGeometry>
        </mxCell>
        <mxCell id="Iji5sNTwijalG1O3RZlo-0" value="" style="html=1;verticalAlign=bottom;endArrow=open;dashed=1;endSize=8;curved=0;rounded=0;entryX=-0.001;entryY=0.896;entryDx=0;entryDy=0;entryPerimeter=0;" parent="x9MJhG8bKUskiO-uLM30-1" target="ymfbsrQ_5wDEe5hcKr6s-0" edge="1">
          <mxGeometry relative="1" as="geometry">
            <mxPoint x="140.57999999999998" y="300" as="sourcePoint" />
            <mxPoint x="60.58" y="300" as="targetPoint" />
          </mxGeometry>
        </mxCell>
        <mxCell id="ymfbsrQ_5wDEe5hcKr6s-0" value="&lt;b&gt;sd&lt;/b&gt;&amp;nbsp;Instructor Item Pick Up" style="shape=umlFrame;whiteSpace=wrap;html=1;pointerEvents=0;width=190;height=30;" parent="x9MJhG8bKUskiO-uLM30-1" vertex="1">
          <mxGeometry x="30.58" y="10" width="580" height="320" as="geometry" />
        </mxCell>
      </root>
    </mxGraphModel>
  </diagram>
  <diagram id="h1OVNxDz_2Jjm3LuWqLY" name="UseItem">
    <mxGraphModel dx="1050" dy="629" grid="1" gridSize="10" guides="1" tooltips="1" connect="1" arrows="1" fold="1" page="1" pageScale="1" pageWidth="827" pageHeight="1169" math="0" shadow="0">
      <root>
        <mxCell id="0" />
        <mxCell id="1" parent="0" />
        <mxCell id="bbkktdvkOxGHxSdScLZ_-1" value="s: Student" style="shape=umlLifeline;perimeter=lifelinePerimeter;whiteSpace=wrap;html=1;container=1;dropTarget=0;collapsible=0;recursiveResize=0;outlineConnect=0;portConstraint=eastwest;newEdgeStyle={&quot;curved&quot;:0,&quot;rounded&quot;:0};" parent="1" vertex="1">
          <mxGeometry x="80" y="120" width="100" height="200" as="geometry" />
        </mxCell>
        <mxCell id="BjoumV6Mx2QM3VXIOmvH-2" value="" style="html=1;points=[[0,0,0,0,5],[0,1,0,0,-5],[1,0,0,0,5],[1,1,0,0,-5]];perimeter=orthogonalPerimeter;outlineConnect=0;targetShapes=umlLifeline;portConstraint=eastwest;newEdgeStyle={&quot;curved&quot;:0,&quot;rounded&quot;:0};" parent="bbkktdvkOxGHxSdScLZ_-1" vertex="1">
          <mxGeometry x="45" y="70" width="10" height="110" as="geometry" />
        </mxCell>
        <mxCell id="BjoumV6Mx2QM3VXIOmvH-1" value="i: Item" style="shape=umlLifeline;perimeter=lifelinePerimeter;whiteSpace=wrap;html=1;container=1;dropTarget=0;collapsible=0;recursiveResize=0;outlineConnect=0;portConstraint=eastwest;newEdgeStyle={&quot;curved&quot;:0,&quot;rounded&quot;:0};" parent="1" vertex="1">
          <mxGeometry x="240" y="120" width="100" height="200" as="geometry" />
        </mxCell>
        <mxCell id="BjoumV6Mx2QM3VXIOmvH-4" value="" style="html=1;points=[[0,0,0,0,5],[0,1,0,0,-5],[1,0,0,0,5],[1,1,0,0,-5]];perimeter=orthogonalPerimeter;outlineConnect=0;targetShapes=umlLifeline;portConstraint=eastwest;newEdgeStyle={&quot;curved&quot;:0,&quot;rounded&quot;:0};" parent="BjoumV6Mx2QM3VXIOmvH-1" vertex="1">
          <mxGeometry x="45" y="90" width="10" height="60" as="geometry" />
        </mxCell>
        <mxCell id="BjoumV6Mx2QM3VXIOmvH-3" value="useItem(i)" style="html=1;verticalAlign=bottom;endArrow=block;curved=0;rounded=0;exitX=-0.01;exitY=0.477;exitDx=0;exitDy=0;exitPerimeter=0;" parent="1" source="7SHl0SSjTbHl9l1p7MN0-2" target="BjoumV6Mx2QM3VXIOmvH-2" edge="1">
          <mxGeometry width="80" relative="1" as="geometry">
            <mxPoint x="20" y="200" as="sourcePoint" />
            <mxPoint x="110" y="200" as="targetPoint" />
          </mxGeometry>
        </mxCell>
        <mxCell id="BjoumV6Mx2QM3VXIOmvH-5" value="use(s)" style="html=1;verticalAlign=bottom;endArrow=block;curved=0;rounded=0;" parent="1" edge="1">
          <mxGeometry width="80" relative="1" as="geometry">
            <mxPoint x="135.0000000000001" y="210" as="sourcePoint" />
            <mxPoint x="285" y="210" as="targetPoint" />
          </mxGeometry>
        </mxCell>
        <mxCell id="BjoumV6Mx2QM3VXIOmvH-6" value="" style="html=1;verticalAlign=bottom;endArrow=open;dashed=1;endSize=8;curved=0;rounded=0;" parent="1" target="BjoumV6Mx2QM3VXIOmvH-2" edge="1">
          <mxGeometry relative="1" as="geometry">
            <mxPoint x="290" y="269.58" as="sourcePoint" />
            <mxPoint x="140.0000000000001" y="269.58" as="targetPoint" />
          </mxGeometry>
        </mxCell>
        <mxCell id="cLRv2oKE2rrYoxX0JINL-1" value="" style="html=1;verticalAlign=bottom;endArrow=open;dashed=1;endSize=8;curved=0;rounded=0;entryX=0.001;entryY=0.869;entryDx=0;entryDy=0;entryPerimeter=0;" parent="1" target="7SHl0SSjTbHl9l1p7MN0-2" edge="1">
          <mxGeometry relative="1" as="geometry">
            <mxPoint x="130" y="300" as="sourcePoint" />
            <mxPoint x="50" y="300" as="targetPoint" />
          </mxGeometry>
        </mxCell>
        <mxCell id="7SHl0SSjTbHl9l1p7MN0-2" value="&lt;b&gt;sd&lt;/b&gt;&amp;nbsp;Use Item" style="shape=umlFrame;whiteSpace=wrap;html=1;pointerEvents=0;width=190;height=30;" parent="1" vertex="1">
          <mxGeometry x="20" y="80" width="380" height="250" as="geometry" />
        </mxCell>
      </root>
    </mxGraphModel>
  </diagram>
  <diagram id="xo4uC17DPznQnbRXL3TF" name="MergeRoom">
    <mxGraphModel dx="1050" dy="629" grid="1" gridSize="10" guides="1" tooltips="1" connect="1" arrows="1" fold="1" page="1" pageScale="1" pageWidth="827" pageHeight="1169" math="0" shadow="0">
      <root>
        <mxCell id="0" />
        <mxCell id="1" parent="0" />
        <mxCell id="GSm0A96lBEENtcwGzsFb-1" value="gc: GameController" style="shape=umlLifeline;perimeter=lifelinePerimeter;whiteSpace=wrap;html=1;container=1;dropTarget=0;collapsible=0;recursiveResize=0;outlineConnect=0;portConstraint=eastwest;newEdgeStyle={&quot;curved&quot;:0,&quot;rounded&quot;:0};" parent="1" vertex="1">
          <mxGeometry x="102.03999999999999" y="50" width="110" height="660" as="geometry" />
        </mxCell>
        <mxCell id="GSm0A96lBEENtcwGzsFb-4" value="" style="html=1;points=[[0,0,0,0,5],[0,1,0,0,-5],[1,0,0,0,5],[1,1,0,0,-5]];perimeter=orthogonalPerimeter;outlineConnect=0;targetShapes=umlLifeline;portConstraint=eastwest;newEdgeStyle={&quot;curved&quot;:0,&quot;rounded&quot;:0};" parent="GSm0A96lBEENtcwGzsFb-1" vertex="1">
          <mxGeometry x="50" y="70" width="10" height="580" as="geometry" />
        </mxCell>
        <mxCell id="FsLcxieu5-XQCKXkS7uP-18" value="" style="html=1;points=[[0,0,0,0,5],[0,1,0,0,-5],[1,0,0,0,5],[1,1,0,0,-5]];perimeter=orthogonalPerimeter;outlineConnect=0;targetShapes=umlLifeline;portConstraint=eastwest;newEdgeStyle={&quot;curved&quot;:0,&quot;rounded&quot;:0};" parent="GSm0A96lBEENtcwGzsFb-1" vertex="1">
          <mxGeometry x="55" y="350" width="10" height="40" as="geometry" />
        </mxCell>
        <mxCell id="FsLcxieu5-XQCKXkS7uP-19" value="i3 = sortItems()" style="html=1;align=left;spacingLeft=2;endArrow=block;rounded=0;edgeStyle=orthogonalEdgeStyle;curved=0;rounded=0;" parent="GSm0A96lBEENtcwGzsFb-1" target="FsLcxieu5-XQCKXkS7uP-18" edge="1">
          <mxGeometry relative="1" as="geometry">
            <mxPoint x="60" y="330" as="sourcePoint" />
            <Array as="points">
              <mxPoint x="90" y="360" />
            </Array>
          </mxGeometry>
        </mxCell>
        <mxCell id="FsLcxieu5-XQCKXkS7uP-25" value="" style="html=1;points=[[0,0,0,0,5],[0,1,0,0,-5],[1,0,0,0,5],[1,1,0,0,-5]];perimeter=orthogonalPerimeter;outlineConnect=0;targetShapes=umlLifeline;portConstraint=eastwest;newEdgeStyle={&quot;curved&quot;:0,&quot;rounded&quot;:0};" parent="GSm0A96lBEENtcwGzsFb-1" vertex="1">
          <mxGeometry x="55" y="450" width="10" height="40" as="geometry" />
        </mxCell>
        <mxCell id="FsLcxieu5-XQCKXkS7uP-26" value="removeRoom(r1)" style="html=1;align=left;spacingLeft=2;endArrow=block;rounded=0;edgeStyle=orthogonalEdgeStyle;curved=0;rounded=0;" parent="GSm0A96lBEENtcwGzsFb-1" target="FsLcxieu5-XQCKXkS7uP-25" edge="1">
          <mxGeometry relative="1" as="geometry">
            <mxPoint x="60" y="430" as="sourcePoint" />
            <Array as="points">
              <mxPoint x="90" y="460" />
            </Array>
          </mxGeometry>
        </mxCell>
        <mxCell id="FsLcxieu5-XQCKXkS7uP-27" value="" style="html=1;points=[[0,0,0,0,5],[0,1,0,0,-5],[1,0,0,0,5],[1,1,0,0,-5]];perimeter=orthogonalPerimeter;outlineConnect=0;targetShapes=umlLifeline;portConstraint=eastwest;newEdgeStyle={&quot;curved&quot;:0,&quot;rounded&quot;:0};" parent="GSm0A96lBEENtcwGzsFb-1" vertex="1">
          <mxGeometry x="55" y="520" width="10" height="40" as="geometry" />
        </mxCell>
        <mxCell id="FsLcxieu5-XQCKXkS7uP-28" value="removeRoom(r2)" style="html=1;align=left;spacingLeft=2;endArrow=block;rounded=0;edgeStyle=orthogonalEdgeStyle;curved=0;rounded=0;" parent="GSm0A96lBEENtcwGzsFb-1" target="FsLcxieu5-XQCKXkS7uP-27" edge="1">
          <mxGeometry relative="1" as="geometry">
            <mxPoint x="60" y="500" as="sourcePoint" />
            <Array as="points">
              <mxPoint x="90" y="530" />
            </Array>
          </mxGeometry>
        </mxCell>
        <mxCell id="FsLcxieu5-XQCKXkS7uP-29" value="" style="html=1;points=[[0,0,0,0,5],[0,1,0,0,-5],[1,0,0,0,5],[1,1,0,0,-5]];perimeter=orthogonalPerimeter;outlineConnect=0;targetShapes=umlLifeline;portConstraint=eastwest;newEdgeStyle={&quot;curved&quot;:0,&quot;rounded&quot;:0};" parent="GSm0A96lBEENtcwGzsFb-1" vertex="1">
          <mxGeometry x="55" y="600" width="10" height="40" as="geometry" />
        </mxCell>
        <mxCell id="FsLcxieu5-XQCKXkS7uP-30" value="addRoom(r3)" style="html=1;align=left;spacingLeft=2;endArrow=block;rounded=0;edgeStyle=orthogonalEdgeStyle;curved=0;rounded=0;" parent="GSm0A96lBEENtcwGzsFb-1" target="FsLcxieu5-XQCKXkS7uP-29" edge="1">
          <mxGeometry relative="1" as="geometry">
            <mxPoint x="60" y="580" as="sourcePoint" />
            <Array as="points">
              <mxPoint x="90" y="610" />
            </Array>
          </mxGeometry>
        </mxCell>
        <mxCell id="GSm0A96lBEENtcwGzsFb-2" value="r1: Room" style="shape=umlLifeline;perimeter=lifelinePerimeter;whiteSpace=wrap;html=1;container=1;dropTarget=0;collapsible=0;recursiveResize=0;outlineConnect=0;portConstraint=eastwest;newEdgeStyle={&quot;curved&quot;:0,&quot;rounded&quot;:0};" parent="1" vertex="1">
          <mxGeometry x="262.04" y="50" width="100" height="660" as="geometry" />
        </mxCell>
        <mxCell id="GSm0A96lBEENtcwGzsFb-6" value="" style="html=1;points=[[0,0,0,0,5],[0,1,0,0,-5],[1,0,0,0,5],[1,1,0,0,-5]];perimeter=orthogonalPerimeter;outlineConnect=0;targetShapes=umlLifeline;portConstraint=eastwest;newEdgeStyle={&quot;curved&quot;:0,&quot;rounded&quot;:0};" parent="GSm0A96lBEENtcwGzsFb-2" vertex="1">
          <mxGeometry x="45" y="80" width="10" height="20" as="geometry" />
        </mxCell>
        <mxCell id="FsLcxieu5-XQCKXkS7uP-8" value="" style="html=1;points=[[0,0,0,0,5],[0,1,0,0,-5],[1,0,0,0,5],[1,1,0,0,-5]];perimeter=orthogonalPerimeter;outlineConnect=0;targetShapes=umlLifeline;portConstraint=eastwest;newEdgeStyle={&quot;curved&quot;:0,&quot;rounded&quot;:0};" parent="GSm0A96lBEENtcwGzsFb-2" vertex="1">
          <mxGeometry x="45" y="260" width="10" height="20" as="geometry" />
        </mxCell>
        <mxCell id="FsLcxieu5-XQCKXkS7uP-9" value="getItems()" style="html=1;verticalAlign=bottom;endArrow=block;curved=0;rounded=0;" parent="GSm0A96lBEENtcwGzsFb-2" edge="1">
          <mxGeometry width="80" relative="1" as="geometry">
            <mxPoint x="-100" y="260" as="sourcePoint" />
            <mxPoint x="49.50000000000023" y="260" as="targetPoint" />
          </mxGeometry>
        </mxCell>
        <mxCell id="FsLcxieu5-XQCKXkS7uP-10" value="i1:= list&amp;lt;Item&amp;gt;" style="html=1;verticalAlign=bottom;endArrow=open;dashed=1;endSize=8;curved=0;rounded=0;exitX=0;exitY=1;exitDx=0;exitDy=-5;exitPerimeter=0;" parent="GSm0A96lBEENtcwGzsFb-2" edge="1">
          <mxGeometry relative="1" as="geometry">
            <mxPoint x="45" y="280" as="sourcePoint" />
            <mxPoint x="-99.99999999999989" y="280" as="targetPoint" />
          </mxGeometry>
        </mxCell>
        <mxCell id="GSm0A96lBEENtcwGzsFb-3" value="r2: Room" style="shape=umlLifeline;perimeter=lifelinePerimeter;whiteSpace=wrap;html=1;container=1;dropTarget=0;collapsible=0;recursiveResize=0;outlineConnect=0;portConstraint=eastwest;newEdgeStyle={&quot;curved&quot;:0,&quot;rounded&quot;:0};" parent="1" vertex="1">
          <mxGeometry x="422.04" y="50" width="100" height="660" as="geometry" />
        </mxCell>
        <mxCell id="GSm0A96lBEENtcwGzsFb-8" value="" style="html=1;points=[[0,0,0,0,5],[0,1,0,0,-5],[1,0,0,0,5],[1,1,0,0,-5]];perimeter=orthogonalPerimeter;outlineConnect=0;targetShapes=umlLifeline;portConstraint=eastwest;newEdgeStyle={&quot;curved&quot;:0,&quot;rounded&quot;:0};" parent="GSm0A96lBEENtcwGzsFb-3" vertex="1">
          <mxGeometry x="45" y="115" width="10" height="25" as="geometry" />
        </mxCell>
        <mxCell id="FsLcxieu5-XQCKXkS7uP-11" value="" style="html=1;points=[[0,0,0,0,5],[0,1,0,0,-5],[1,0,0,0,5],[1,1,0,0,-5]];perimeter=orthogonalPerimeter;outlineConnect=0;targetShapes=umlLifeline;portConstraint=eastwest;newEdgeStyle={&quot;curved&quot;:0,&quot;rounded&quot;:0};" parent="GSm0A96lBEENtcwGzsFb-3" vertex="1">
          <mxGeometry x="45" y="300" width="10" height="20" as="geometry" />
        </mxCell>
        <mxCell id="GSm0A96lBEENtcwGzsFb-5" value="mergeRooms(r1, r2)" style="html=1;verticalAlign=bottom;endArrow=block;curved=0;rounded=0;exitX=0.002;exitY=0.152;exitDx=0;exitDy=0;exitPerimeter=0;" parent="1" source="SWNIdoqpy3avHTem5m4d-1" target="GSm0A96lBEENtcwGzsFb-4" edge="1">
          <mxGeometry width="80" relative="1" as="geometry">
            <mxPoint x="32.04" y="120" as="sourcePoint" />
            <mxPoint x="132.04" y="120" as="targetPoint" />
          </mxGeometry>
        </mxCell>
        <mxCell id="GSm0A96lBEENtcwGzsFb-7" value="r3: Room" style="shape=umlLifeline;perimeter=lifelinePerimeter;whiteSpace=wrap;html=1;container=1;dropTarget=0;collapsible=0;recursiveResize=0;outlineConnect=0;portConstraint=eastwest;newEdgeStyle={&quot;curved&quot;:0,&quot;rounded&quot;:0};" parent="1" vertex="1">
          <mxGeometry x="582.04" y="50" width="100" height="660" as="geometry" />
        </mxCell>
        <mxCell id="GSm0A96lBEENtcwGzsFb-9" value="" style="html=1;points=[[0,0,0,0,5],[0,1,0,0,-5],[1,0,0,0,5],[1,1,0,0,-5]];perimeter=orthogonalPerimeter;outlineConnect=0;targetShapes=umlLifeline;portConstraint=eastwest;newEdgeStyle={&quot;curved&quot;:0,&quot;rounded&quot;:0};" parent="GSm0A96lBEENtcwGzsFb-7" vertex="1">
          <mxGeometry x="45" y="160" width="10" height="30" as="geometry" />
        </mxCell>
        <mxCell id="FsLcxieu5-XQCKXkS7uP-5" value="" style="html=1;points=[[0,0,0,0,5],[0,1,0,0,-5],[1,0,0,0,5],[1,1,0,0,-5]];perimeter=orthogonalPerimeter;outlineConnect=0;targetShapes=umlLifeline;portConstraint=eastwest;newEdgeStyle={&quot;curved&quot;:0,&quot;rounded&quot;:0};" parent="GSm0A96lBEENtcwGzsFb-7" vertex="1">
          <mxGeometry x="45" y="210" width="10" height="30" as="geometry" />
        </mxCell>
        <mxCell id="FsLcxieu5-XQCKXkS7uP-6" value="addNeighbours(n2)" style="html=1;verticalAlign=bottom;endArrow=block;curved=0;rounded=0;entryX=0;entryY=0;entryDx=0;entryDy=5;entryPerimeter=0;" parent="GSm0A96lBEENtcwGzsFb-7" target="FsLcxieu5-XQCKXkS7uP-5" edge="1">
          <mxGeometry width="80" relative="1" as="geometry">
            <mxPoint x="-420" y="215" as="sourcePoint" />
            <mxPoint x="-300" y="230" as="targetPoint" />
          </mxGeometry>
        </mxCell>
        <mxCell id="FsLcxieu5-XQCKXkS7uP-7" value="" style="html=1;verticalAlign=bottom;endArrow=open;dashed=1;endSize=8;curved=0;rounded=0;exitX=0;exitY=1;exitDx=0;exitDy=-5;exitPerimeter=0;" parent="GSm0A96lBEENtcwGzsFb-7" source="FsLcxieu5-XQCKXkS7uP-5" edge="1">
          <mxGeometry relative="1" as="geometry">
            <mxPoint x="-140" y="240" as="sourcePoint" />
            <mxPoint x="-425" y="235" as="targetPoint" />
          </mxGeometry>
        </mxCell>
        <mxCell id="FsLcxieu5-XQCKXkS7uP-21" value="" style="html=1;points=[[0,0,0,0,5],[0,1,0,0,-5],[1,0,0,0,5],[1,1,0,0,-5]];perimeter=orthogonalPerimeter;outlineConnect=0;targetShapes=umlLifeline;portConstraint=eastwest;newEdgeStyle={&quot;curved&quot;:0,&quot;rounded&quot;:0};" parent="GSm0A96lBEENtcwGzsFb-7" vertex="1">
          <mxGeometry x="45" y="400" width="10" height="30" as="geometry" />
        </mxCell>
        <mxCell id="GSm0A96lBEENtcwGzsFb-10" value="getNeighbours()" style="html=1;verticalAlign=bottom;endArrow=block;curved=0;rounded=0;" parent="1" edge="1">
          <mxGeometry width="80" relative="1" as="geometry">
            <mxPoint x="162.04" y="130" as="sourcePoint" />
            <mxPoint x="311.54000000000025" y="130" as="targetPoint" />
          </mxGeometry>
        </mxCell>
        <mxCell id="GSm0A96lBEENtcwGzsFb-11" value="n1:= list&amp;lt;Room&amp;gt;" style="html=1;verticalAlign=bottom;endArrow=open;dashed=1;endSize=8;curved=0;rounded=0;exitX=0;exitY=1;exitDx=0;exitDy=-5;exitPerimeter=0;" parent="1" edge="1">
          <mxGeometry relative="1" as="geometry">
            <mxPoint x="307.04" y="150" as="sourcePoint" />
            <mxPoint x="162.0400000000001" y="150" as="targetPoint" />
          </mxGeometry>
        </mxCell>
        <mxCell id="GSm0A96lBEENtcwGzsFb-12" value="getNeighbours()" style="html=1;verticalAlign=bottom;endArrow=block;curved=0;rounded=0;entryX=0;entryY=0;entryDx=0;entryDy=5;entryPerimeter=0;" parent="1" source="GSm0A96lBEENtcwGzsFb-4" target="GSm0A96lBEENtcwGzsFb-8" edge="1">
          <mxGeometry width="80" relative="1" as="geometry">
            <mxPoint x="172.04" y="194.62" as="sourcePoint" />
            <mxPoint x="321.54000000000025" y="194.62" as="targetPoint" />
          </mxGeometry>
        </mxCell>
        <mxCell id="GSm0A96lBEENtcwGzsFb-13" value="n2:= list&amp;lt;Room&amp;gt;" style="html=1;verticalAlign=bottom;endArrow=open;dashed=1;endSize=8;curved=0;rounded=0;" parent="1" edge="1">
          <mxGeometry relative="1" as="geometry">
            <mxPoint x="464.54" y="190" as="sourcePoint" />
            <mxPoint x="159.53999999999988" y="190" as="targetPoint" />
          </mxGeometry>
        </mxCell>
        <mxCell id="FsLcxieu5-XQCKXkS7uP-1" value="addNeighbours(n1)" style="html=1;verticalAlign=bottom;endArrow=block;curved=0;rounded=0;entryX=0;entryY=0;entryDx=0;entryDy=5;entryPerimeter=0;" parent="1" source="GSm0A96lBEENtcwGzsFb-4" target="GSm0A96lBEENtcwGzsFb-9" edge="1">
          <mxGeometry width="80" relative="1" as="geometry">
            <mxPoint x="202.04" y="230" as="sourcePoint" />
            <mxPoint x="282.04" y="230" as="targetPoint" />
          </mxGeometry>
        </mxCell>
        <mxCell id="FsLcxieu5-XQCKXkS7uP-2" value="" style="html=1;verticalAlign=bottom;endArrow=open;dashed=1;endSize=8;curved=0;rounded=0;exitX=0;exitY=1;exitDx=0;exitDy=-5;exitPerimeter=0;" parent="1" source="GSm0A96lBEENtcwGzsFb-9" target="GSm0A96lBEENtcwGzsFb-1" edge="1">
          <mxGeometry relative="1" as="geometry">
            <mxPoint x="442.04" y="240" as="sourcePoint" />
            <mxPoint x="362.04" y="240" as="targetPoint" />
          </mxGeometry>
        </mxCell>
        <mxCell id="FsLcxieu5-XQCKXkS7uP-12" value="getItems()" style="html=1;verticalAlign=bottom;endArrow=block;curved=0;rounded=0;entryX=0;entryY=0;entryDx=0;entryDy=5;entryPerimeter=0;" parent="1" edge="1">
          <mxGeometry width="80" relative="1" as="geometry">
            <mxPoint x="159.54" y="350" as="sourcePoint" />
            <mxPoint x="464.54" y="350" as="targetPoint" />
          </mxGeometry>
        </mxCell>
        <mxCell id="FsLcxieu5-XQCKXkS7uP-17" value="i2:= list&amp;lt;Item&amp;gt;" style="html=1;verticalAlign=bottom;endArrow=open;dashed=1;endSize=8;curved=0;rounded=0;exitX=0;exitY=1;exitDx=0;exitDy=-5;exitPerimeter=0;" parent="1" edge="1">
          <mxGeometry relative="1" as="geometry">
            <mxPoint x="464.54" y="370" as="sourcePoint" />
            <mxPoint x="159.54" y="370" as="targetPoint" />
          </mxGeometry>
        </mxCell>
        <mxCell id="FsLcxieu5-XQCKXkS7uP-20" value="addItems(i3)" style="html=1;verticalAlign=bottom;endArrow=block;curved=0;rounded=0;entryX=0;entryY=0;entryDx=0;entryDy=5;entryPerimeter=0;" parent="1" source="GSm0A96lBEENtcwGzsFb-4" target="FsLcxieu5-XQCKXkS7uP-21" edge="1">
          <mxGeometry width="80" relative="1" as="geometry">
            <mxPoint x="162.04" y="450" as="sourcePoint" />
            <mxPoint x="242.04" y="450" as="targetPoint" />
          </mxGeometry>
        </mxCell>
        <mxCell id="FsLcxieu5-XQCKXkS7uP-22" value="" style="html=1;verticalAlign=bottom;endArrow=open;dashed=1;endSize=8;curved=0;rounded=0;exitX=0;exitY=1;exitDx=0;exitDy=-5;exitPerimeter=0;" parent="1" source="FsLcxieu5-XQCKXkS7uP-21" target="GSm0A96lBEENtcwGzsFb-4" edge="1">
          <mxGeometry relative="1" as="geometry">
            <mxPoint x="422.04" y="480" as="sourcePoint" />
            <mxPoint x="342.04" y="480" as="targetPoint" />
          </mxGeometry>
        </mxCell>
        <mxCell id="OXYP7QJb78BnhiTNO2mH-1" value="" style="html=1;verticalAlign=bottom;endArrow=open;dashed=1;endSize=8;curved=0;rounded=0;entryX=-0.003;entryY=0.955;entryDx=0;entryDy=0;entryPerimeter=0;" parent="1" target="SWNIdoqpy3avHTem5m4d-1" edge="1">
          <mxGeometry relative="1" as="geometry">
            <mxPoint x="162.04" y="700" as="sourcePoint" />
            <mxPoint x="82.03999999999999" y="700" as="targetPoint" />
          </mxGeometry>
        </mxCell>
        <mxCell id="SWNIdoqpy3avHTem5m4d-1" value="&lt;b&gt;sd&lt;/b&gt;&amp;nbsp;Merge Room" style="shape=umlFrame;whiteSpace=wrap;html=1;pointerEvents=0;width=190;height=30;" parent="1" vertex="1">
          <mxGeometry x="22.04" y="10" width="680" height="720" as="geometry" />
        </mxCell>
      </root>
    </mxGraphModel>
  </diagram>
  <diagram id="OFYyWunz7Ux02NIGb4eM" name="StudentGoesToInstructor">
    <mxGraphModel dx="1050" dy="629" grid="1" gridSize="10" guides="1" tooltips="1" connect="1" arrows="1" fold="1" page="1" pageScale="1" pageWidth="827" pageHeight="1169" math="0" shadow="0">
      <root>
        <mxCell id="0" />
        <mxCell id="1" parent="0" />
        <mxCell id="aqEj_CJNjtxMapkLRKvd-1" value="i: Instructor" style="shape=umlLifeline;perimeter=lifelinePerimeter;whiteSpace=wrap;html=1;container=1;dropTarget=0;collapsible=0;recursiveResize=0;outlineConnect=0;portConstraint=eastwest;newEdgeStyle={&quot;curved&quot;:0,&quot;rounded&quot;:0};" parent="1" vertex="1">
          <mxGeometry x="110.82" y="60" width="100" height="180" as="geometry" />
        </mxCell>
        <mxCell id="aqEj_CJNjtxMapkLRKvd-3" value="" style="html=1;points=[[0,0,0,0,5],[0,1,0,0,-5],[1,0,0,0,5],[1,1,0,0,-5]];perimeter=orthogonalPerimeter;outlineConnect=0;targetShapes=umlLifeline;portConstraint=eastwest;newEdgeStyle={&quot;curved&quot;:0,&quot;rounded&quot;:0};" parent="aqEj_CJNjtxMapkLRKvd-1" vertex="1">
          <mxGeometry x="45" y="50" width="10" height="120" as="geometry" />
        </mxCell>
        <mxCell id="aqEj_CJNjtxMapkLRKvd-2" value="c: Student" style="shape=umlLifeline;perimeter=lifelinePerimeter;whiteSpace=wrap;html=1;container=1;dropTarget=0;collapsible=0;recursiveResize=0;outlineConnect=0;portConstraint=eastwest;newEdgeStyle={&quot;curved&quot;:0,&quot;rounded&quot;:0};" parent="1" vertex="1">
          <mxGeometry x="290.82" y="60" width="100" height="180" as="geometry" />
        </mxCell>
        <mxCell id="aqEj_CJNjtxMapkLRKvd-5" value="" style="html=1;points=[[0,0,0,0,5],[0,1,0,0,-5],[1,0,0,0,5],[1,1,0,0,-5]];perimeter=orthogonalPerimeter;outlineConnect=0;targetShapes=umlLifeline;portConstraint=eastwest;newEdgeStyle={&quot;curved&quot;:0,&quot;rounded&quot;:0};" parent="aqEj_CJNjtxMapkLRKvd-2" vertex="1">
          <mxGeometry x="45" y="70" width="10" height="80" as="geometry" />
        </mxCell>
        <mxCell id="aqEj_CJNjtxMapkLRKvd-7" value="" style="html=1;points=[[0,0,0,0,5],[0,1,0,0,-5],[1,0,0,0,5],[1,1,0,0,-5]];perimeter=orthogonalPerimeter;outlineConnect=0;targetShapes=umlLifeline;portConstraint=eastwest;newEdgeStyle={&quot;curved&quot;:0,&quot;rounded&quot;:0};" parent="aqEj_CJNjtxMapkLRKvd-2" vertex="1">
          <mxGeometry x="50" y="100" width="10" height="30" as="geometry" />
        </mxCell>
        <mxCell id="aqEj_CJNjtxMapkLRKvd-8" value="die()" style="html=1;align=left;spacingLeft=2;endArrow=block;rounded=0;edgeStyle=orthogonalEdgeStyle;curved=0;rounded=0;" parent="aqEj_CJNjtxMapkLRKvd-2" target="aqEj_CJNjtxMapkLRKvd-7" edge="1">
          <mxGeometry relative="1" as="geometry">
            <mxPoint x="55" y="80" as="sourcePoint" />
            <Array as="points">
              <mxPoint x="85" y="110" />
            </Array>
          </mxGeometry>
        </mxCell>
        <mxCell id="aqEj_CJNjtxMapkLRKvd-4" value="meet(c)" style="html=1;verticalAlign=bottom;endArrow=block;curved=0;rounded=0;exitX=0;exitY=0.406;exitDx=0;exitDy=0;exitPerimeter=0;" parent="1" source="DvfcM3ci52GlGsrc0ub_-1" target="aqEj_CJNjtxMapkLRKvd-3" edge="1">
          <mxGeometry width="80" relative="1" as="geometry">
            <mxPoint x="70.82" y="120" as="sourcePoint" />
            <mxPoint x="150.82" y="120" as="targetPoint" />
          </mxGeometry>
        </mxCell>
        <mxCell id="aqEj_CJNjtxMapkLRKvd-6" value="meetInstructor(i)" style="html=1;verticalAlign=bottom;endArrow=block;curved=0;rounded=0;" parent="1" edge="1">
          <mxGeometry width="80" relative="1" as="geometry">
            <mxPoint x="165.8200000000001" y="130" as="sourcePoint" />
            <mxPoint x="335.82" y="130" as="targetPoint" />
          </mxGeometry>
        </mxCell>
        <mxCell id="aqEj_CJNjtxMapkLRKvd-9" value="" style="html=1;verticalAlign=bottom;endArrow=open;dashed=1;endSize=8;curved=0;rounded=0;" parent="1" edge="1">
          <mxGeometry relative="1" as="geometry">
            <mxPoint x="335.82" y="209.57999999999998" as="sourcePoint" />
            <mxPoint x="165.8200000000001" y="209.57999999999998" as="targetPoint" />
          </mxGeometry>
        </mxCell>
        <mxCell id="wrZv3g_RzfWqtluuKJ6e-1" value="" style="html=1;verticalAlign=bottom;endArrow=open;dashed=1;endSize=8;curved=0;rounded=0;entryX=-0.002;entryY=0.872;entryDx=0;entryDy=0;entryPerimeter=0;" parent="1" target="DvfcM3ci52GlGsrc0ub_-1" edge="1">
          <mxGeometry relative="1" as="geometry">
            <mxPoint x="160.82" y="230" as="sourcePoint" />
            <mxPoint x="80.82" y="230" as="targetPoint" />
          </mxGeometry>
        </mxCell>
        <mxCell id="DvfcM3ci52GlGsrc0ub_-1" value="&lt;b&gt;sd&lt;/b&gt;&amp;nbsp;Student Goes To Instructor" style="shape=umlFrame;whiteSpace=wrap;html=1;pointerEvents=0;width=190;height=30;" parent="1" vertex="1">
          <mxGeometry x="10.82" y="20" width="410" height="240" as="geometry" />
        </mxCell>
      </root>
    </mxGraphModel>
  </diagram>
  <diagram id="x3BAlIujtfv599h59PZ-" name="TeacherGoesToInstructor">
    <mxGraphModel dx="1050" dy="629" grid="1" gridSize="10" guides="1" tooltips="1" connect="1" arrows="1" fold="1" page="1" pageScale="1" pageWidth="827" pageHeight="1169" math="0" shadow="0">
      <root>
        <mxCell id="0" />
        <mxCell id="1" parent="0" />
        <mxCell id="y0QLWzmvWhBNKa-xtIO_-1" value="s: Student" style="shape=umlLifeline;perimeter=lifelinePerimeter;whiteSpace=wrap;html=1;container=1;dropTarget=0;collapsible=0;recursiveResize=0;outlineConnect=0;portConstraint=eastwest;newEdgeStyle={&quot;curved&quot;:0,&quot;rounded&quot;:0};" parent="1" vertex="1">
          <mxGeometry x="80" y="40" width="100" height="200" as="geometry" />
        </mxCell>
        <mxCell id="Q0iuVARVUoExvlMt9Jnz-2" value="" style="html=1;points=[[0,0,0,0,5],[0,1,0,0,-5],[1,0,0,0,5],[1,1,0,0,-5]];perimeter=orthogonalPerimeter;outlineConnect=0;targetShapes=umlLifeline;portConstraint=eastwest;newEdgeStyle={&quot;curved&quot;:0,&quot;rounded&quot;:0};" parent="y0QLWzmvWhBNKa-xtIO_-1" vertex="1">
          <mxGeometry x="45" y="50" width="10" height="120" as="geometry" />
        </mxCell>
        <mxCell id="79TcTVqvM2SMglMqOGz9-3" value="" style="html=1;points=[[0,0,0,0,5],[0,1,0,0,-5],[1,0,0,0,5],[1,1,0,0,-5]];perimeter=orthogonalPerimeter;outlineConnect=0;targetShapes=umlLifeline;portConstraint=eastwest;newEdgeStyle={&quot;curved&quot;:0,&quot;rounded&quot;:0};" parent="y0QLWzmvWhBNKa-xtIO_-1" vertex="1">
          <mxGeometry x="55" y="100" width="10" height="50" as="geometry" />
        </mxCell>
        <mxCell id="Q0iuVARVUoExvlMt9Jnz-1" value="c: Instructor" style="shape=umlLifeline;perimeter=lifelinePerimeter;whiteSpace=wrap;html=1;container=1;dropTarget=0;collapsible=0;recursiveResize=0;outlineConnect=0;portConstraint=eastwest;newEdgeStyle={&quot;curved&quot;:0,&quot;rounded&quot;:0};" parent="1" vertex="1">
          <mxGeometry x="240" y="40" width="100" height="200" as="geometry" />
        </mxCell>
        <mxCell id="Q0iuVARVUoExvlMt9Jnz-3" value="" style="html=1;points=[[0,0,0,0,5],[0,1,0,0,-5],[1,0,0,0,5],[1,1,0,0,-5]];perimeter=orthogonalPerimeter;outlineConnect=0;targetShapes=umlLifeline;portConstraint=eastwest;newEdgeStyle={&quot;curved&quot;:0,&quot;rounded&quot;:0};" parent="Q0iuVARVUoExvlMt9Jnz-1" vertex="1">
          <mxGeometry x="45" y="65" width="10" height="105" as="geometry" />
        </mxCell>
        <mxCell id="Q0iuVARVUoExvlMt9Jnz-4" value="meetStudent(s)" style="html=1;verticalAlign=bottom;endArrow=block;curved=0;rounded=0;entryX=0;entryY=0;entryDx=0;entryDy=5;entryPerimeter=0;" parent="1" target="Q0iuVARVUoExvlMt9Jnz-3" edge="1">
          <mxGeometry width="80" relative="1" as="geometry">
            <mxPoint x="135.0000000000001" y="110" as="sourcePoint" />
            <mxPoint x="285" y="110" as="targetPoint" />
          </mxGeometry>
        </mxCell>
        <mxCell id="79TcTVqvM2SMglMqOGz9-1" value="meet(c)" style="html=1;verticalAlign=bottom;endArrow=block;curved=0;rounded=0;exitX=-0.009;exitY=0.382;exitDx=0;exitDy=0;exitPerimeter=0;" parent="1" source="rf-WACrVOmADqK6hnMsv-1" target="Q0iuVARVUoExvlMt9Jnz-2" edge="1">
          <mxGeometry width="80" relative="1" as="geometry">
            <mxPoint x="30" y="100" as="sourcePoint" />
            <mxPoint x="110" y="100" as="targetPoint" />
          </mxGeometry>
        </mxCell>
        <mxCell id="79TcTVqvM2SMglMqOGz9-4" value="die()" style="html=1;verticalAlign=bottom;endArrow=block;curved=0;rounded=0;entryX=1;entryY=0;entryDx=0;entryDy=5;" parent="1" source="Q0iuVARVUoExvlMt9Jnz-3" target="79TcTVqvM2SMglMqOGz9-3" edge="1">
          <mxGeometry relative="1" as="geometry">
            <mxPoint x="215" y="145" as="sourcePoint" />
          </mxGeometry>
        </mxCell>
        <mxCell id="79TcTVqvM2SMglMqOGz9-5" value="" style="html=1;verticalAlign=bottom;endArrow=open;dashed=1;endSize=8;curved=0;rounded=0;exitX=1;exitY=1;exitDx=0;exitDy=-5;" parent="1" source="79TcTVqvM2SMglMqOGz9-3" target="Q0iuVARVUoExvlMt9Jnz-3" edge="1">
          <mxGeometry relative="1" as="geometry">
            <mxPoint x="215" y="215" as="targetPoint" />
          </mxGeometry>
        </mxCell>
        <mxCell id="B5Ys8Xpliib8XJ5LrxHY-1" value="" style="html=1;verticalAlign=bottom;endArrow=open;dashed=1;endSize=8;curved=0;rounded=0;entryX=0.003;entryY=0.795;entryDx=0;entryDy=0;entryPerimeter=0;" parent="1" target="rf-WACrVOmADqK6hnMsv-1" edge="1">
          <mxGeometry relative="1" as="geometry">
            <mxPoint x="130" y="210" as="sourcePoint" />
            <mxPoint x="50" y="210" as="targetPoint" />
          </mxGeometry>
        </mxCell>
        <mxCell id="rf-WACrVOmADqK6hnMsv-1" value="&lt;b&gt;sd&lt;/b&gt;&amp;nbsp;Instructor Goes To Student" style="shape=umlFrame;whiteSpace=wrap;html=1;pointerEvents=0;width=190;height=30;" parent="1" vertex="1">
          <mxGeometry x="20" y="10" width="360" height="260" as="geometry" />
        </mxCell>
      </root>
    </mxGraphModel>
  </diagram>
  <diagram id="dxT82o6hBuaE0ikg-5SY" name="TransistorJump">
    <mxGraphModel dx="1050" dy="629" grid="1" gridSize="10" guides="1" tooltips="1" connect="1" arrows="1" fold="1" page="1" pageScale="1" pageWidth="827" pageHeight="1169" math="0" shadow="0">
      <root>
        <mxCell id="0" />
        <mxCell id="1" parent="0" />
        <mxCell id="7D6AUWJWKfy93p9TFdUZ-1" value="s: Student" style="shape=umlLifeline;perimeter=lifelinePerimeter;whiteSpace=wrap;html=1;container=1;dropTarget=0;collapsible=0;recursiveResize=0;outlineConnect=0;portConstraint=eastwest;newEdgeStyle={&quot;curved&quot;:0,&quot;rounded&quot;:0};" parent="1" vertex="1">
          <mxGeometry x="70" y="50" width="100" height="300" as="geometry" />
        </mxCell>
        <mxCell id="7D6AUWJWKfy93p9TFdUZ-5" value="" style="html=1;points=[[0,0,0,0,5],[0,1,0,0,-5],[1,0,0,0,5],[1,1,0,0,-5]];perimeter=orthogonalPerimeter;outlineConnect=0;targetShapes=umlLifeline;portConstraint=eastwest;newEdgeStyle={&quot;curved&quot;:0,&quot;rounded&quot;:0};" parent="7D6AUWJWKfy93p9TFdUZ-1" vertex="1">
          <mxGeometry x="45" y="60" width="10" height="220" as="geometry" />
        </mxCell>
        <mxCell id="7D6AUWJWKfy93p9TFdUZ-2" value="r1: Room" style="shape=umlLifeline;perimeter=lifelinePerimeter;whiteSpace=wrap;html=1;container=1;dropTarget=0;collapsible=0;recursiveResize=0;outlineConnect=0;portConstraint=eastwest;newEdgeStyle={&quot;curved&quot;:0,&quot;rounded&quot;:0};" parent="1" vertex="1">
          <mxGeometry x="230" y="50" width="100" height="300" as="geometry" />
        </mxCell>
        <mxCell id="7D6AUWJWKfy93p9TFdUZ-10" value="" style="html=1;points=[[0,0,0,0,5],[0,1,0,0,-5],[1,0,0,0,5],[1,1,0,0,-5]];perimeter=orthogonalPerimeter;outlineConnect=0;targetShapes=umlLifeline;portConstraint=eastwest;newEdgeStyle={&quot;curved&quot;:0,&quot;rounded&quot;:0};" parent="7D6AUWJWKfy93p9TFdUZ-2" vertex="1">
          <mxGeometry x="45" y="70" width="10" height="40" as="geometry" />
        </mxCell>
        <mxCell id="PhTYkBVfuT6HV5GO7W7a-1" value="" style="html=1;points=[[0,0,0,0,5],[0,1,0,0,-5],[1,0,0,0,5],[1,1,0,0,-5]];perimeter=orthogonalPerimeter;outlineConnect=0;targetShapes=umlLifeline;portConstraint=eastwest;newEdgeStyle={&quot;curved&quot;:0,&quot;rounded&quot;:0};" parent="7D6AUWJWKfy93p9TFdUZ-2" vertex="1">
          <mxGeometry x="45" y="180" width="10" height="30" as="geometry" />
        </mxCell>
        <mxCell id="7D6AUWJWKfy93p9TFdUZ-3" value="t: Transistor" style="shape=umlLifeline;whiteSpace=wrap;html=1;container=1;dropTarget=0;collapsible=0;recursiveResize=0;outlineConnect=0;portConstraint=eastwest;newEdgeStyle={&quot;curved&quot;:0,&quot;rounded&quot;:0};points=[[0,0,0,0,5],[0,1,0,0,-5],[1,0,0,0,5],[1,1,0,0,-5]];perimeter=rectanglePerimeter;targetShapes=umlLifeline;participant=label;" parent="1" vertex="1">
          <mxGeometry x="390" y="50" width="100" height="300" as="geometry" />
        </mxCell>
        <mxCell id="7D6AUWJWKfy93p9TFdUZ-18" value="" style="html=1;points=[[0,0,0,0,5],[0,1,0,0,-5],[1,0,0,0,5],[1,1,0,0,-5]];perimeter=orthogonalPerimeter;outlineConnect=0;targetShapes=umlLifeline;portConstraint=eastwest;newEdgeStyle={&quot;curved&quot;:0,&quot;rounded&quot;:0};" parent="7D6AUWJWKfy93p9TFdUZ-3" vertex="1">
          <mxGeometry x="45" y="130" width="10" height="30" as="geometry" />
        </mxCell>
        <mxCell id="7D6AUWJWKfy93p9TFdUZ-4" value="r2: Room" style="shape=umlLifeline;perimeter=lifelinePerimeter;whiteSpace=wrap;html=1;container=1;dropTarget=0;collapsible=0;recursiveResize=0;outlineConnect=0;portConstraint=eastwest;newEdgeStyle={&quot;curved&quot;:0,&quot;rounded&quot;:0};" parent="1" vertex="1">
          <mxGeometry x="550" y="50" width="100" height="300" as="geometry" />
        </mxCell>
        <mxCell id="7D6AUWJWKfy93p9TFdUZ-21" value="" style="html=1;points=[[0,0,0,0,5],[0,1,0,0,-5],[1,0,0,0,5],[1,1,0,0,-5]];perimeter=orthogonalPerimeter;outlineConnect=0;targetShapes=umlLifeline;portConstraint=eastwest;newEdgeStyle={&quot;curved&quot;:0,&quot;rounded&quot;:0};" parent="7D6AUWJWKfy93p9TFdUZ-4" vertex="1">
          <mxGeometry x="45" y="240" width="10" height="30" as="geometry" />
        </mxCell>
        <mxCell id="7D6AUWJWKfy93p9TFdUZ-11" value="getTransistor()" style="html=1;verticalAlign=bottom;endArrow=block;curved=0;rounded=0;entryX=0;entryY=0;entryDx=0;entryDy=5;" parent="1" source="7D6AUWJWKfy93p9TFdUZ-5" target="7D6AUWJWKfy93p9TFdUZ-10" edge="1">
          <mxGeometry relative="1" as="geometry">
            <mxPoint x="205" y="135" as="sourcePoint" />
          </mxGeometry>
        </mxCell>
        <mxCell id="7D6AUWJWKfy93p9TFdUZ-12" value="t: Transistor" style="html=1;verticalAlign=bottom;endArrow=open;dashed=1;endSize=8;curved=0;rounded=0;exitX=0;exitY=1;exitDx=0;exitDy=-5;" parent="1" source="7D6AUWJWKfy93p9TFdUZ-10" target="7D6AUWJWKfy93p9TFdUZ-5" edge="1">
          <mxGeometry relative="1" as="geometry">
            <mxPoint x="205" y="205" as="targetPoint" />
          </mxGeometry>
        </mxCell>
        <mxCell id="7D6AUWJWKfy93p9TFdUZ-13" value="transistorJump()" style="html=1;verticalAlign=bottom;endArrow=block;curved=0;rounded=0;entryX=0.5;entryY=0.045;entryDx=0;entryDy=0;entryPerimeter=0;exitX=0.003;exitY=0.307;exitDx=0;exitDy=0;exitPerimeter=0;" parent="1" source="SGm3Xq072CQuDa57XlgK-2" target="7D6AUWJWKfy93p9TFdUZ-5" edge="1">
          <mxGeometry x="-0.1429" width="80" relative="1" as="geometry">
            <mxPoint x="50" y="120" as="sourcePoint" />
            <mxPoint x="110" y="120" as="targetPoint" />
            <mxPoint as="offset" />
          </mxGeometry>
        </mxCell>
        <mxCell id="7D6AUWJWKfy93p9TFdUZ-19" value="getPairsRoom()" style="html=1;verticalAlign=bottom;endArrow=block;curved=0;rounded=0;entryX=0;entryY=0;entryDx=0;entryDy=5;" parent="1" source="7D6AUWJWKfy93p9TFdUZ-5" target="7D6AUWJWKfy93p9TFdUZ-18" edge="1">
          <mxGeometry relative="1" as="geometry">
            <mxPoint x="365" y="175" as="sourcePoint" />
          </mxGeometry>
        </mxCell>
        <mxCell id="7D6AUWJWKfy93p9TFdUZ-20" value="r2: Room" style="html=1;verticalAlign=bottom;endArrow=open;dashed=1;endSize=8;curved=0;rounded=0;exitX=0;exitY=1;exitDx=0;exitDy=-5;" parent="1" source="7D6AUWJWKfy93p9TFdUZ-18" target="7D6AUWJWKfy93p9TFdUZ-5" edge="1">
          <mxGeometry relative="1" as="geometry">
            <mxPoint x="365" y="245" as="targetPoint" />
          </mxGeometry>
        </mxCell>
        <mxCell id="7D6AUWJWKfy93p9TFdUZ-23" value="" style="html=1;verticalAlign=bottom;endArrow=open;dashed=1;endSize=8;curved=0;rounded=0;exitX=0;exitY=1;exitDx=0;exitDy=-5;" parent="1" source="7D6AUWJWKfy93p9TFdUZ-21" target="7D6AUWJWKfy93p9TFdUZ-5" edge="1">
          <mxGeometry relative="1" as="geometry">
            <mxPoint x="525" y="295" as="targetPoint" />
          </mxGeometry>
        </mxCell>
        <mxCell id="PhTYkBVfuT6HV5GO7W7a-3" value="" style="html=1;verticalAlign=bottom;endArrow=open;dashed=1;endSize=8;curved=0;rounded=0;exitX=0;exitY=1;exitDx=0;exitDy=-5;" parent="1" source="PhTYkBVfuT6HV5GO7W7a-1" target="7D6AUWJWKfy93p9TFdUZ-5" edge="1">
          <mxGeometry relative="1" as="geometry">
            <mxPoint x="205" y="295" as="targetPoint" />
          </mxGeometry>
        </mxCell>
        <mxCell id="PhTYkBVfuT6HV5GO7W7a-2" value="removePlayer(this)" style="html=1;verticalAlign=bottom;endArrow=block;curved=0;rounded=0;entryX=0;entryY=0;entryDx=0;entryDy=5;" parent="1" source="7D6AUWJWKfy93p9TFdUZ-5" target="PhTYkBVfuT6HV5GO7W7a-1" edge="1">
          <mxGeometry relative="1" as="geometry">
            <mxPoint x="205" y="225" as="sourcePoint" />
          </mxGeometry>
        </mxCell>
        <mxCell id="PhTYkBVfuT6HV5GO7W7a-4" value="addCharacter(s)" style="html=1;verticalAlign=bottom;endArrow=block;curved=0;rounded=0;entryX=0;entryY=0;entryDx=0;entryDy=5;entryPerimeter=0;" parent="1" source="7D6AUWJWKfy93p9TFdUZ-5" target="7D6AUWJWKfy93p9TFdUZ-21" edge="1">
          <mxGeometry width="80" relative="1" as="geometry">
            <mxPoint x="330" y="290" as="sourcePoint" />
            <mxPoint x="410" y="290" as="targetPoint" />
          </mxGeometry>
        </mxCell>
        <mxCell id="PC3wNCfrIbbi2q4ObNdE-1" value="" style="html=1;verticalAlign=bottom;endArrow=open;dashed=1;endSize=8;curved=0;rounded=0;entryX=0;entryY=0.883;entryDx=0;entryDy=0;entryPerimeter=0;" parent="1" target="SGm3Xq072CQuDa57XlgK-2" edge="1">
          <mxGeometry relative="1" as="geometry">
            <mxPoint x="120" y="330" as="sourcePoint" />
            <mxPoint x="40" y="330" as="targetPoint" />
          </mxGeometry>
        </mxCell>
        <mxCell id="SGm3Xq072CQuDa57XlgK-2" value="&lt;b&gt;sd&lt;/b&gt;&amp;nbsp;Transistor Jump" style="shape=umlFrame;whiteSpace=wrap;html=1;pointerEvents=0;width=190;height=30;" parent="1" vertex="1">
          <mxGeometry x="30" y="10" width="640" height="360" as="geometry" />
        </mxCell>
      </root>
    </mxGraphModel>
  </diagram>
  <diagram id="TvDZZ1qdJFhwG-PyKGI5" name="EnterRoom">
    <mxGraphModel dx="1050" dy="629" grid="1" gridSize="10" guides="1" tooltips="1" connect="1" arrows="1" fold="1" page="1" pageScale="1" pageWidth="827" pageHeight="1169" math="0" shadow="0">
      <root>
        <mxCell id="0" />
        <mxCell id="1" parent="0" />
        <mxCell id="s0lRKzSPhxktu2_I0NR7-1" value="r2: Room" style="shape=umlLifeline;perimeter=lifelinePerimeter;whiteSpace=wrap;html=1;container=0;dropTarget=0;collapsible=0;recursiveResize=0;outlineConnect=0;portConstraint=eastwest;newEdgeStyle={&quot;edgeStyle&quot;:&quot;elbowEdgeStyle&quot;,&quot;elbow&quot;:&quot;vertical&quot;,&quot;curved&quot;:0,&quot;rounded&quot;:0};" parent="1" vertex="1">
          <mxGeometry x="220" y="40" width="100" height="230" as="geometry" />
        </mxCell>
        <mxCell id="s0lRKzSPhxktu2_I0NR7-3" value="" style="html=1;points=[[0,0,0,0,5],[0,1,0,0,-5],[1,0,0,0,5],[1,1,0,0,-5]];perimeter=orthogonalPerimeter;outlineConnect=0;targetShapes=umlLifeline;portConstraint=eastwest;newEdgeStyle={&quot;curved&quot;:0,&quot;rounded&quot;:0};" parent="s0lRKzSPhxktu2_I0NR7-1" vertex="1">
          <mxGeometry x="45" y="60" width="10" height="150" as="geometry" />
        </mxCell>
        <mxCell id="s0lRKzSPhxktu2_I0NR7-4" value="addCharacter(c)" style="html=1;verticalAlign=bottom;endArrow=block;curved=0;rounded=0;exitX=-0.004;exitY=0.39;exitDx=0;exitDy=0;exitPerimeter=0;" parent="1" source="bq8GvYzvPjD2_zXFawGz-2" edge="1">
          <mxGeometry width="80" relative="1" as="geometry">
            <mxPoint x="95" y="109.65999999999997" as="sourcePoint" />
            <mxPoint x="265.0000000000001" y="109.65999999999997" as="targetPoint" />
          </mxGeometry>
        </mxCell>
        <mxCell id="s0lRKzSPhxktu2_I0NR7-6" value="" style="html=1;points=[[0,0,0,0,5],[0,1,0,0,-5],[1,0,0,0,5],[1,1,0,0,-5]];perimeter=orthogonalPerimeter;outlineConnect=0;targetShapes=umlLifeline;portConstraint=eastwest;newEdgeStyle={&quot;curved&quot;:0,&quot;rounded&quot;:0};" parent="1" vertex="1">
          <mxGeometry x="270" y="130" width="10" height="110" as="geometry" />
        </mxCell>
        <mxCell id="s0lRKzSPhxktu2_I0NR7-7" value="onEntered(c)" style="html=1;align=left;spacingLeft=2;endArrow=block;rounded=0;edgeStyle=orthogonalEdgeStyle;curved=0;rounded=0;" parent="1" target="s0lRKzSPhxktu2_I0NR7-6" edge="1">
          <mxGeometry x="0.0053" relative="1" as="geometry">
            <mxPoint x="275" y="110" as="sourcePoint" />
            <Array as="points">
              <mxPoint x="305" y="140" />
            </Array>
            <mxPoint as="offset" />
          </mxGeometry>
        </mxCell>
        <mxCell id="s0lRKzSPhxktu2_I0NR7-8" value="c2: Character" style="shape=umlLifeline;perimeter=lifelinePerimeter;whiteSpace=wrap;html=1;container=1;dropTarget=0;collapsible=0;recursiveResize=0;outlineConnect=0;portConstraint=eastwest;newEdgeStyle={&quot;curved&quot;:0,&quot;rounded&quot;:0};" parent="1" vertex="1">
          <mxGeometry x="380" y="40" width="100" height="210" as="geometry" />
        </mxCell>
        <mxCell id="s0lRKzSPhxktu2_I0NR7-9" value="frame" style="shape=umlFrame;whiteSpace=wrap;html=1;pointerEvents=0;" parent="1" vertex="1">
          <mxGeometry x="100" y="150" width="380" height="70" as="geometry" />
        </mxCell>
        <mxCell id="s0lRKzSPhxktu2_I0NR7-10" value="[for all c2 :&lt;br&gt;listOfCharacters]" style="text;html=1;align=center;verticalAlign=middle;resizable=0;points=[];autosize=1;strokeColor=none;fillColor=none;" parent="1" vertex="1">
          <mxGeometry x="155" y="170" width="110" height="40" as="geometry" />
        </mxCell>
        <mxCell id="s0lRKzSPhxktu2_I0NR7-11" value="meet(c)" style="html=1;verticalAlign=bottom;endArrow=block;curved=0;rounded=0;" parent="1" target="s0lRKzSPhxktu2_I0NR7-12" edge="1">
          <mxGeometry width="80" relative="1" as="geometry">
            <mxPoint x="280" y="170" as="sourcePoint" />
            <mxPoint x="525" y="170" as="targetPoint" />
          </mxGeometry>
        </mxCell>
        <mxCell id="s0lRKzSPhxktu2_I0NR7-12" value="" style="html=1;points=[[0,0,0,0,5],[0,1,0,0,-5],[1,0,0,0,5],[1,1,0,0,-5]];perimeter=orthogonalPerimeter;outlineConnect=0;targetShapes=umlLifeline;portConstraint=eastwest;newEdgeStyle={&quot;curved&quot;:0,&quot;rounded&quot;:0};" parent="1" vertex="1">
          <mxGeometry x="425" y="170" width="10" height="30" as="geometry" />
        </mxCell>
        <mxCell id="s0lRKzSPhxktu2_I0NR7-13" value="" style="html=1;verticalAlign=bottom;endArrow=open;dashed=1;endSize=8;curved=0;rounded=0;" parent="1" edge="1">
          <mxGeometry relative="1" as="geometry">
            <mxPoint x="420" y="200" as="sourcePoint" />
            <mxPoint x="280" y="200" as="targetPoint" />
          </mxGeometry>
        </mxCell>
        <mxCell id="lf2XFIrmRUSy6m_X1uNA-1" value="" style="html=1;verticalAlign=bottom;endArrow=open;dashed=1;endSize=8;curved=0;rounded=0;entryX=-0.001;entryY=0.893;entryDx=0;entryDy=0;entryPerimeter=0;" parent="1" target="bq8GvYzvPjD2_zXFawGz-2" edge="1">
          <mxGeometry relative="1" as="geometry">
            <mxPoint x="270" y="250" as="sourcePoint" />
            <mxPoint x="190" y="250" as="targetPoint" />
          </mxGeometry>
        </mxCell>
        <mxCell id="bq8GvYzvPjD2_zXFawGz-2" value="&lt;b&gt;sd&lt;/b&gt;&amp;nbsp;Enter Room" style="shape=umlFrame;whiteSpace=wrap;html=1;pointerEvents=0;width=190;height=30;" parent="1" vertex="1">
          <mxGeometry x="60" width="450" height="280" as="geometry" />
        </mxCell>
      </root>
    </mxGraphModel>
  </diagram>
  <diagram id="D-YMiRE15r19iHQUGaz0" name="StudentStartRound">
    <mxGraphModel dx="1050" dy="629" grid="1" gridSize="10" guides="1" tooltips="1" connect="1" arrows="1" fold="1" page="1" pageScale="1" pageWidth="827" pageHeight="1169" math="0" shadow="0">
      <root>
        <mxCell id="0" />
        <mxCell id="1" parent="0" />
        <mxCell id="0TbIWteUH8aSdiXBDDCj-1" value="s: Student" style="shape=umlLifeline;perimeter=lifelinePerimeter;whiteSpace=wrap;html=1;container=1;dropTarget=0;collapsible=0;recursiveResize=0;outlineConnect=0;portConstraint=eastwest;newEdgeStyle={&quot;curved&quot;:0,&quot;rounded&quot;:0};" parent="1" vertex="1">
          <mxGeometry x="133.8" y="60" width="100" height="280" as="geometry" />
        </mxCell>
        <mxCell id="0TbIWteUH8aSdiXBDDCj-2" value="" style="html=1;points=[[0,0,0,0,5],[0,1,0,0,-5],[1,0,0,0,5],[1,1,0,0,-5]];perimeter=orthogonalPerimeter;outlineConnect=0;targetShapes=umlLifeline;portConstraint=eastwest;newEdgeStyle={&quot;curved&quot;:0,&quot;rounded&quot;:0};" parent="0TbIWteUH8aSdiXBDDCj-1" vertex="1">
          <mxGeometry x="45" y="60" width="10" height="200" as="geometry" />
        </mxCell>
        <mxCell id="0TbIWteUH8aSdiXBDDCj-3" value="startRound(rounds: int)" style="html=1;verticalAlign=bottom;endArrow=block;curved=0;rounded=0;exitX=0.004;exitY=0.314;exitDx=0;exitDy=0;exitPerimeter=0;" parent="1" source="BaENVarw1FRf6lfjDdcq-1" target="0TbIWteUH8aSdiXBDDCj-2" edge="1">
          <mxGeometry width="80" relative="1" as="geometry">
            <mxPoint x="53.8" y="130" as="sourcePoint" />
            <mxPoint x="133.8" y="130" as="targetPoint" />
          </mxGeometry>
        </mxCell>
        <mxCell id="0TbIWteUH8aSdiXBDDCj-4" value="loop" style="shape=umlFrame;whiteSpace=wrap;html=1;pointerEvents=0;" parent="1" vertex="1">
          <mxGeometry x="53.8" y="140" width="320" height="60" as="geometry" />
        </mxCell>
        <mxCell id="0TbIWteUH8aSdiXBDDCj-5" value="i: item" style="shape=umlLifeline;perimeter=lifelinePerimeter;whiteSpace=wrap;html=1;container=1;dropTarget=0;collapsible=0;recursiveResize=0;outlineConnect=0;portConstraint=eastwest;newEdgeStyle={&quot;curved&quot;:0,&quot;rounded&quot;:0};" parent="1" vertex="1">
          <mxGeometry x="293.8" y="60" width="100" height="280" as="geometry" />
        </mxCell>
        <mxCell id="0TbIWteUH8aSdiXBDDCj-7" value="" style="html=1;points=[[0,0,0,0,5],[0,1,0,0,-5],[1,0,0,0,5],[1,1,0,0,-5]];perimeter=orthogonalPerimeter;outlineConnect=0;targetShapes=umlLifeline;portConstraint=eastwest;newEdgeStyle={&quot;curved&quot;:0,&quot;rounded&quot;:0};" parent="0TbIWteUH8aSdiXBDDCj-5" vertex="1">
          <mxGeometry x="45" y="93" width="10" height="27" as="geometry" />
        </mxCell>
        <mxCell id="0TbIWteUH8aSdiXBDDCj-6" value="&lt;font style=&quot;font-size: 11px;&quot;&gt;[ for all i : inventory ]&lt;/font&gt;" style="text;html=1;align=center;verticalAlign=middle;resizable=0;points=[];autosize=1;strokeColor=none;fillColor=none;" parent="1" vertex="1">
          <mxGeometry x="53.8" y="170" width="120" height="30" as="geometry" />
        </mxCell>
        <mxCell id="0TbIWteUH8aSdiXBDDCj-8" value="onRoundStart(s)" style="html=1;verticalAlign=bottom;endArrow=block;curved=0;rounded=0;entryX=0;entryY=0;entryDx=0;entryDy=5;entryPerimeter=0;" parent="1" source="0TbIWteUH8aSdiXBDDCj-2" target="0TbIWteUH8aSdiXBDDCj-7" edge="1">
          <mxGeometry width="80" relative="1" as="geometry">
            <mxPoint x="203.8" y="160" as="sourcePoint" />
            <mxPoint x="283.8" y="160" as="targetPoint" />
          </mxGeometry>
        </mxCell>
        <mxCell id="0TbIWteUH8aSdiXBDDCj-9" value="" style="html=1;verticalAlign=bottom;endArrow=open;dashed=1;endSize=8;curved=0;rounded=0;exitX=0;exitY=1;exitDx=0;exitDy=-5;exitPerimeter=0;" parent="1" source="0TbIWteUH8aSdiXBDDCj-7" target="0TbIWteUH8aSdiXBDDCj-2" edge="1">
          <mxGeometry relative="1" as="geometry">
            <mxPoint x="303.8" y="220" as="sourcePoint" />
            <mxPoint x="223.8" y="220" as="targetPoint" />
          </mxGeometry>
        </mxCell>
        <mxCell id="0TbIWteUH8aSdiXBDDCj-12" value="" style="html=1;points=[[0,0,0,0,5],[0,1,0,0,-5],[1,0,0,0,5],[1,1,0,0,-5]];perimeter=orthogonalPerimeter;outlineConnect=0;targetShapes=umlLifeline;portConstraint=eastwest;newEdgeStyle={&quot;curved&quot;:0,&quot;rounded&quot;:0};" parent="1" vertex="1">
          <mxGeometry x="183.8" y="240" width="10" height="40" as="geometry" />
        </mxCell>
        <mxCell id="0TbIWteUH8aSdiXBDDCj-13" value="action()" style="html=1;align=left;spacingLeft=2;endArrow=block;rounded=0;edgeStyle=orthogonalEdgeStyle;curved=0;rounded=0;" parent="1" target="0TbIWteUH8aSdiXBDDCj-12" edge="1">
          <mxGeometry relative="1" as="geometry">
            <mxPoint x="188.8" y="220" as="sourcePoint" />
            <Array as="points">
              <mxPoint x="218.8" y="250" />
            </Array>
          </mxGeometry>
        </mxCell>
        <mxCell id="0TbIWteUH8aSdiXBDDCj-14" value="loop" style="shape=umlFrame;whiteSpace=wrap;html=1;pointerEvents=0;" parent="1" vertex="1">
          <mxGeometry x="53.8" y="210" width="320" height="90" as="geometry" />
        </mxCell>
        <mxCell id="0TbIWteUH8aSdiXBDDCj-15" value="&lt;font style=&quot;font-size: 11px;&quot;&gt;[ rounds times ]&lt;/font&gt;" style="text;html=1;align=center;verticalAlign=middle;resizable=0;points=[];autosize=1;strokeColor=none;fillColor=none;" parent="1" vertex="1">
          <mxGeometry x="53.8" y="240" width="100" height="30" as="geometry" />
        </mxCell>
        <mxCell id="TxnoWgtLKQ43SxnfLlAP-1" value="" style="html=1;verticalAlign=bottom;endArrow=open;dashed=1;endSize=8;curved=0;rounded=0;entryX=-0.007;entryY=0.882;entryDx=0;entryDy=0;entryPerimeter=0;" parent="1" target="BaENVarw1FRf6lfjDdcq-1" edge="1">
          <mxGeometry relative="1" as="geometry">
            <mxPoint x="183.8" y="320" as="sourcePoint" />
            <mxPoint x="103.8" y="320" as="targetPoint" />
          </mxGeometry>
        </mxCell>
        <mxCell id="BaENVarw1FRf6lfjDdcq-1" value="&lt;b&gt;sd&lt;/b&gt;&amp;nbsp;Student Start Round" style="shape=umlFrame;whiteSpace=wrap;html=1;pointerEvents=0;width=190;height=30;" parent="1" vertex="1">
          <mxGeometry x="13.8" y="20" width="400" height="340" as="geometry" />
        </mxCell>
      </root>
    </mxGraphModel>
  </diagram>
  <diagram id="MDe7v9sFTy1mgrLY8xAm" name="Idle">
    <mxGraphModel dx="1050" dy="629" grid="1" gridSize="10" guides="1" tooltips="1" connect="1" arrows="1" fold="1" page="1" pageScale="1" pageWidth="827" pageHeight="1169" math="0" shadow="0">
      <root>
        <mxCell id="0" />
        <mxCell id="1" parent="0" />
        <mxCell id="O9DZCDqXzNRoeEjVF6j5-1" value="c: Character" style="shape=umlLifeline;perimeter=lifelinePerimeter;whiteSpace=wrap;html=1;container=1;dropTarget=0;collapsible=0;recursiveResize=0;outlineConnect=0;portConstraint=eastwest;newEdgeStyle={&quot;curved&quot;:0,&quot;rounded&quot;:0};" parent="1" vertex="1">
          <mxGeometry x="141.2" y="50" width="100" height="130" as="geometry" />
        </mxCell>
        <mxCell id="O9DZCDqXzNRoeEjVF6j5-6" value="" style="html=1;points=[[0,0,0,0,5],[0,1,0,0,-5],[1,0,0,0,5],[1,1,0,0,-5]];perimeter=orthogonalPerimeter;outlineConnect=0;targetShapes=umlLifeline;portConstraint=eastwest;newEdgeStyle={&quot;curved&quot;:0,&quot;rounded&quot;:0};" parent="O9DZCDqXzNRoeEjVF6j5-1" vertex="1">
          <mxGeometry x="45" y="60" width="10" height="40" as="geometry" />
        </mxCell>
        <mxCell id="O9DZCDqXzNRoeEjVF6j5-7" value="idle()" style="html=1;verticalAlign=bottom;endArrow=block;curved=0;rounded=0;entryX=0;entryY=0;entryDx=0;entryDy=5;entryPerimeter=0;exitX=-0.005;exitY=0.545;exitDx=0;exitDy=0;exitPerimeter=0;" parent="1" source="qwt8I6kLkFfzX_QaMEnl-2" target="O9DZCDqXzNRoeEjVF6j5-6" edge="1">
          <mxGeometry width="80" relative="1" as="geometry">
            <mxPoint x="71.2" y="115" as="sourcePoint" />
            <mxPoint x="151.2" y="120" as="targetPoint" />
          </mxGeometry>
        </mxCell>
        <mxCell id="IREHIo_G9NPm8J4OsArW-2" value="" style="html=1;verticalAlign=bottom;endArrow=open;dashed=1;endSize=8;curved=0;rounded=0;entryX=0.009;entryY=0.726;entryDx=0;entryDy=0;entryPerimeter=0;" parent="1" source="O9DZCDqXzNRoeEjVF6j5-6" target="qwt8I6kLkFfzX_QaMEnl-2" edge="1">
          <mxGeometry relative="1" as="geometry">
            <mxPoint x="171.2" y="150" as="sourcePoint" />
            <mxPoint x="71.2" y="150" as="targetPoint" />
          </mxGeometry>
        </mxCell>
        <mxCell id="qwt8I6kLkFfzX_QaMEnl-2" value="&lt;b&gt;sd&lt;/b&gt;&amp;nbsp;Idle" style="shape=umlFrame;whiteSpace=wrap;html=1;pointerEvents=0;width=190;height=30;" parent="1" vertex="1">
          <mxGeometry x="21.2" y="10" width="240" height="190" as="geometry" />
        </mxCell>
      </root>
    </mxGraphModel>
  </diagram>
  <diagram id="toOFbixHtYeYkgvGerma" name="SlideRulePickedUp">
    <mxGraphModel dx="1050" dy="629" grid="1" gridSize="10" guides="1" tooltips="1" connect="1" arrows="1" fold="1" page="1" pageScale="1" pageWidth="827" pageHeight="1169" math="0" shadow="0">
      <root>
        <mxCell id="0" />
        <mxCell id="1" parent="0" />
        <mxCell id="0k75WmQDll60zrxVz9HY-1" value="s: SlideRule" style="shape=umlLifeline;perimeter=lifelinePerimeter;whiteSpace=wrap;html=1;container=1;dropTarget=0;collapsible=0;recursiveResize=0;outlineConnect=0;portConstraint=eastwest;newEdgeStyle={&quot;curved&quot;:0,&quot;rounded&quot;:0};" parent="1" vertex="1">
          <mxGeometry x="110" y="60" width="100" height="240" as="geometry" />
        </mxCell>
        <mxCell id="pqnfn8uhtLpG3O88ecs0-2" value="" style="html=1;points=[[0,0,0,0,5],[0,1,0,0,-5],[1,0,0,0,5],[1,1,0,0,-5]];perimeter=orthogonalPerimeter;outlineConnect=0;targetShapes=umlLifeline;portConstraint=eastwest;newEdgeStyle={&quot;curved&quot;:0,&quot;rounded&quot;:0};" parent="0k75WmQDll60zrxVz9HY-1" vertex="1">
          <mxGeometry x="45" y="60" width="10" height="140" as="geometry" />
        </mxCell>
        <mxCell id="pqnfn8uhtLpG3O88ecs0-1" value="onPickedUp()" style="html=1;verticalAlign=bottom;endArrow=block;curved=0;rounded=0;entryX=0;entryY=0;entryDx=0;entryDy=5;entryPerimeter=0;exitX=0.002;exitY=0.349;exitDx=0;exitDy=0;exitPerimeter=0;" parent="1" source="IAyc4KWSQlE9PUDeE8ol-1" target="pqnfn8uhtLpG3O88ecs0-2" edge="1">
          <mxGeometry width="80" relative="1" as="geometry">
            <mxPoint x="50" y="125" as="sourcePoint" />
            <mxPoint x="120" y="120" as="targetPoint" />
          </mxGeometry>
        </mxCell>
        <mxCell id="pqnfn8uhtLpG3O88ecs0-3" value="gc: GameController" style="shape=umlLifeline;perimeter=lifelinePerimeter;whiteSpace=wrap;html=1;container=1;dropTarget=0;collapsible=0;recursiveResize=0;outlineConnect=0;portConstraint=eastwest;newEdgeStyle={&quot;curved&quot;:0,&quot;rounded&quot;:0};" parent="1" vertex="1">
          <mxGeometry x="300" y="60" width="110" height="240" as="geometry" />
        </mxCell>
        <mxCell id="pqnfn8uhtLpG3O88ecs0-5" value="" style="html=1;points=[[0,0,0,0,5],[0,1,0,0,-5],[1,0,0,0,5],[1,1,0,0,-5]];perimeter=orthogonalPerimeter;outlineConnect=0;targetShapes=umlLifeline;portConstraint=eastwest;newEdgeStyle={&quot;curved&quot;:0,&quot;rounded&quot;:0};" parent="pqnfn8uhtLpG3O88ecs0-3" vertex="1">
          <mxGeometry x="50" y="70" width="10" height="100" as="geometry" />
        </mxCell>
        <mxCell id="pqnfn8uhtLpG3O88ecs0-10" value="" style="html=1;points=[[0,0,0,0,5],[0,1,0,0,-5],[1,0,0,0,5],[1,1,0,0,-5]];perimeter=orthogonalPerimeter;outlineConnect=0;targetShapes=umlLifeline;portConstraint=eastwest;newEdgeStyle={&quot;curved&quot;:0,&quot;rounded&quot;:0};" parent="pqnfn8uhtLpG3O88ecs0-3" vertex="1">
          <mxGeometry x="55" y="110" width="10" height="40" as="geometry" />
        </mxCell>
        <mxCell id="pqnfn8uhtLpG3O88ecs0-11" value="endGame()" style="html=1;align=left;spacingLeft=2;endArrow=block;rounded=0;edgeStyle=orthogonalEdgeStyle;curved=0;rounded=0;" parent="pqnfn8uhtLpG3O88ecs0-3" target="pqnfn8uhtLpG3O88ecs0-10" edge="1">
          <mxGeometry relative="1" as="geometry">
            <mxPoint x="60" y="90" as="sourcePoint" />
            <Array as="points">
              <mxPoint x="90" y="120" />
            </Array>
          </mxGeometry>
        </mxCell>
        <mxCell id="pqnfn8uhtLpG3O88ecs0-6" value="slideRulePickedUp()" style="html=1;verticalAlign=bottom;endArrow=block;curved=0;rounded=0;entryX=0;entryY=0;entryDx=0;entryDy=5;" parent="1" source="pqnfn8uhtLpG3O88ecs0-2" target="pqnfn8uhtLpG3O88ecs0-5" edge="1">
          <mxGeometry relative="1" as="geometry">
            <mxPoint x="280" y="135" as="sourcePoint" />
          </mxGeometry>
        </mxCell>
        <mxCell id="pqnfn8uhtLpG3O88ecs0-7" value="" style="html=1;verticalAlign=bottom;endArrow=open;dashed=1;endSize=8;curved=0;rounded=0;exitX=0;exitY=1;exitDx=0;exitDy=-5;" parent="1" source="pqnfn8uhtLpG3O88ecs0-5" target="pqnfn8uhtLpG3O88ecs0-2" edge="1">
          <mxGeometry relative="1" as="geometry">
            <mxPoint x="280" y="205" as="targetPoint" />
          </mxGeometry>
        </mxCell>
        <mxCell id="pqnfn8uhtLpG3O88ecs0-9" value="" style="html=1;verticalAlign=bottom;endArrow=open;dashed=1;endSize=8;curved=0;rounded=0;entryX=0.003;entryY=0.796;entryDx=0;entryDy=0;entryPerimeter=0;" parent="1" target="IAyc4KWSQlE9PUDeE8ol-1" edge="1">
          <mxGeometry relative="1" as="geometry">
            <mxPoint x="155.0000000000001" y="260" as="sourcePoint" />
            <mxPoint x="60" y="260" as="targetPoint" />
          </mxGeometry>
        </mxCell>
        <mxCell id="IAyc4KWSQlE9PUDeE8ol-1" value="&lt;b&gt;sd&lt;/b&gt;&amp;nbsp;Slide Rule Pick Up" style="shape=umlFrame;whiteSpace=wrap;html=1;pointerEvents=0;width=190;height=30;" parent="1" vertex="1">
          <mxGeometry x="30" y="20" width="430" height="300" as="geometry" />
        </mxCell>
      </root>
    </mxGraphModel>
  </diagram>
  <diagram id="F-NAZNv8DFHp6_IY_tSx" name="NewRound">
    <mxGraphModel dx="1290" dy="629" grid="1" gridSize="10" guides="1" tooltips="1" connect="1" arrows="1" fold="1" page="1" pageScale="1" pageWidth="827" pageHeight="1169" math="0" shadow="0">
      <root>
        <mxCell id="0" />
        <mxCell id="1" parent="0" />
        <mxCell id="k_Lje1uJPzIWFjfFsKo_-1" value="gc: GameController" style="shape=umlLifeline;perimeter=lifelinePerimeter;whiteSpace=wrap;html=1;container=1;dropTarget=0;collapsible=0;recursiveResize=0;outlineConnect=0;portConstraint=eastwest;newEdgeStyle={&quot;curved&quot;:0,&quot;rounded&quot;:0};" parent="1" vertex="1">
          <mxGeometry x="151.68" y="60" width="110" height="300" as="geometry" />
        </mxCell>
        <mxCell id="k_Lje1uJPzIWFjfFsKo_-2" value="" style="html=1;points=[[0,0,0,0,5],[0,1,0,0,-5],[1,0,0,0,5],[1,1,0,0,-5]];perimeter=orthogonalPerimeter;outlineConnect=0;targetShapes=umlLifeline;portConstraint=eastwest;newEdgeStyle={&quot;curved&quot;:0,&quot;rounded&quot;:0};" parent="k_Lje1uJPzIWFjfFsKo_-1" vertex="1">
          <mxGeometry x="50" y="60" width="10" height="240" as="geometry" />
        </mxCell>
        <mxCell id="k_Lje1uJPzIWFjfFsKo_-3" value="newRound()" style="html=1;verticalAlign=bottom;endArrow=block;curved=0;rounded=0;exitX=0.004;exitY=0.274;exitDx=0;exitDy=0;exitPerimeter=0;" parent="1" source="T7dGs3uKClfl34goy7BT-1" edge="1">
          <mxGeometry width="80" relative="1" as="geometry">
            <mxPoint x="91.68" y="120" as="sourcePoint" />
            <mxPoint x="201.68" y="120" as="targetPoint" />
          </mxGeometry>
        </mxCell>
        <mxCell id="k_Lje1uJPzIWFjfFsKo_-4" value="c: Character" style="shape=umlLifeline;perimeter=lifelinePerimeter;whiteSpace=wrap;html=1;container=1;dropTarget=0;collapsible=0;recursiveResize=0;outlineConnect=0;portConstraint=eastwest;newEdgeStyle={&quot;curved&quot;:0,&quot;rounded&quot;:0};" parent="1" vertex="1">
          <mxGeometry x="311.68" y="60" width="100" height="300" as="geometry" />
        </mxCell>
        <mxCell id="k_Lje1uJPzIWFjfFsKo_-5" value="loop" style="shape=umlFrame;whiteSpace=wrap;html=1;pointerEvents=0;" parent="1" vertex="1">
          <mxGeometry x="71.68" y="140" width="350" height="200" as="geometry" />
        </mxCell>
        <mxCell id="k_Lje1uJPzIWFjfFsKo_-6" value="&lt;font style=&quot;font-size: 10px;&quot;&gt;[ for all c in characterList ]&lt;/font&gt;" style="text;html=1;align=center;verticalAlign=middle;resizable=0;points=[];autosize=1;strokeColor=none;fillColor=none;" parent="1" vertex="1">
          <mxGeometry x="61.68" y="170" width="140" height="30" as="geometry" />
        </mxCell>
        <mxCell id="k_Lje1uJPzIWFjfFsKo_-7" value="" style="html=1;points=[[0,0,0,0,5],[0,1,0,0,-5],[1,0,0,0,5],[1,1,0,0,-5]];perimeter=orthogonalPerimeter;outlineConnect=0;targetShapes=umlLifeline;portConstraint=eastwest;newEdgeStyle={&quot;curved&quot;:0,&quot;rounded&quot;:0};" parent="1" vertex="1">
          <mxGeometry x="356.68" y="220" width="10" height="90" as="geometry" />
        </mxCell>
        <mxCell id="k_Lje1uJPzIWFjfFsKo_-8" value="" style="html=1;points=[[0,0,0,0,5],[0,1,0,0,-5],[1,0,0,0,5],[1,1,0,0,-5]];perimeter=orthogonalPerimeter;outlineConnect=0;targetShapes=umlLifeline;portConstraint=eastwest;newEdgeStyle={&quot;curved&quot;:0,&quot;rounded&quot;:0};" parent="1" vertex="1">
          <mxGeometry x="206.68" y="170" width="10" height="40" as="geometry" />
        </mxCell>
        <mxCell id="k_Lje1uJPzIWFjfFsKo_-9" value="d = rollDice()" style="html=1;align=left;spacingLeft=2;endArrow=block;rounded=0;edgeStyle=orthogonalEdgeStyle;curved=0;rounded=0;" parent="1" target="k_Lje1uJPzIWFjfFsKo_-8" edge="1">
          <mxGeometry relative="1" as="geometry">
            <mxPoint x="211.68" y="150" as="sourcePoint" />
            <Array as="points">
              <mxPoint x="241.68" y="180" />
            </Array>
          </mxGeometry>
        </mxCell>
        <mxCell id="k_Lje1uJPzIWFjfFsKo_-10" value="startRound(d)" style="html=1;verticalAlign=bottom;endArrow=block;curved=0;rounded=0;entryX=0;entryY=0;entryDx=0;entryDy=5;entryPerimeter=0;" parent="1" source="k_Lje1uJPzIWFjfFsKo_-2" target="k_Lje1uJPzIWFjfFsKo_-7" edge="1">
          <mxGeometry width="80" relative="1" as="geometry">
            <mxPoint x="231.68" y="220" as="sourcePoint" />
            <mxPoint x="311.68" y="220" as="targetPoint" />
          </mxGeometry>
        </mxCell>
        <mxCell id="k_Lje1uJPzIWFjfFsKo_-11" value="" style="html=1;verticalAlign=bottom;endArrow=open;dashed=1;endSize=8;curved=0;rounded=0;exitX=0;exitY=1;exitDx=0;exitDy=-5;exitPerimeter=0;" parent="1" source="k_Lje1uJPzIWFjfFsKo_-7" target="k_Lje1uJPzIWFjfFsKo_-2" edge="1">
          <mxGeometry relative="1" as="geometry">
            <mxPoint x="321.68" y="280" as="sourcePoint" />
            <mxPoint x="241.68" y="280" as="targetPoint" />
          </mxGeometry>
        </mxCell>
        <mxCell id="xuqs3MQzLpWGW_fR2uJO-1" value="" style="html=1;verticalAlign=bottom;endArrow=open;dashed=1;endSize=8;curved=0;rounded=0;exitX=0;exitY=1;exitDx=0;exitDy=-5;exitPerimeter=0;entryX=-0.004;entryY=0.93;entryDx=0;entryDy=0;entryPerimeter=0;" parent="1" source="k_Lje1uJPzIWFjfFsKo_-2" target="T7dGs3uKClfl34goy7BT-1" edge="1">
          <mxGeometry relative="1" as="geometry">
            <mxPoint x="171.68" y="310" as="sourcePoint" />
            <mxPoint x="111.68" y="325" as="targetPoint" />
          </mxGeometry>
        </mxCell>
        <mxCell id="T7dGs3uKClfl34goy7BT-1" value="&lt;b&gt;sd&lt;/b&gt;&amp;nbsp;NewRound" style="shape=umlFrame;whiteSpace=wrap;html=1;pointerEvents=0;width=190;height=30;" parent="1" vertex="1">
          <mxGeometry x="31.68" y="20" width="420" height="360" as="geometry" />
        </mxCell>
      </root>
    </mxGraphModel>
  </diagram>
  <diagram id="_lUB3uK5J1Q1bv_PdLfh" name="PairTransitor">
    <mxGraphModel dx="1050" dy="629" grid="1" gridSize="10" guides="1" tooltips="1" connect="1" arrows="1" fold="1" page="1" pageScale="1" pageWidth="827" pageHeight="1169" math="0" shadow="0">
      <root>
        <mxCell id="0" />
        <mxCell id="1" parent="0" />
        <mxCell id="w47QC9zgp852gqi-McjJ-1" value="t1: Transistor" style="shape=umlLifeline;perimeter=lifelinePerimeter;whiteSpace=wrap;html=1;container=1;dropTarget=0;collapsible=0;recursiveResize=0;outlineConnect=0;portConstraint=eastwest;newEdgeStyle={&quot;curved&quot;:0,&quot;rounded&quot;:0};" parent="1" vertex="1">
          <mxGeometry x="141.14" y="50" width="100" height="340" as="geometry" />
        </mxCell>
        <mxCell id="w47QC9zgp852gqi-McjJ-2" value="" style="html=1;points=[[0,0,0,0,5],[0,1,0,0,-5],[1,0,0,0,5],[1,1,0,0,-5]];perimeter=orthogonalPerimeter;outlineConnect=0;targetShapes=umlLifeline;portConstraint=eastwest;newEdgeStyle={&quot;curved&quot;:0,&quot;rounded&quot;:0};" parent="w47QC9zgp852gqi-McjJ-1" vertex="1">
          <mxGeometry x="45" y="60" width="10" height="270" as="geometry" />
        </mxCell>
        <mxCell id="w47QC9zgp852gqi-McjJ-3" value="onPickedUp(s: Student)" style="html=1;verticalAlign=bottom;endArrow=block;curved=0;rounded=0;entryX=0;entryY=0;entryDx=0;entryDy=5;entryPerimeter=0;exitX=-0.002;exitY=0.27;exitDx=0;exitDy=0;exitPerimeter=0;" parent="1" source="Byqw5OLQiMPGduESdiLs-1" target="w47QC9zgp852gqi-McjJ-2" edge="1">
          <mxGeometry width="80" relative="1" as="geometry">
            <mxPoint x="61.14" y="115" as="sourcePoint" />
            <mxPoint x="161.14" y="110" as="targetPoint" />
          </mxGeometry>
        </mxCell>
        <mxCell id="on1VTLb09uup9Lcaqehw-1" value="s: Student" style="shape=umlLifeline;perimeter=lifelinePerimeter;whiteSpace=wrap;html=1;container=1;dropTarget=0;collapsible=0;recursiveResize=0;outlineConnect=0;portConstraint=eastwest;newEdgeStyle={&quot;curved&quot;:0,&quot;rounded&quot;:0};" parent="1" vertex="1">
          <mxGeometry x="301.14" y="50" width="100" height="300" as="geometry" />
        </mxCell>
        <mxCell id="on1VTLb09uup9Lcaqehw-2" value="" style="html=1;points=[[0,0,0,0,5],[0,1,0,0,-5],[1,0,0,0,5],[1,1,0,0,-5]];perimeter=orthogonalPerimeter;outlineConnect=0;targetShapes=umlLifeline;portConstraint=eastwest;newEdgeStyle={&quot;curved&quot;:0,&quot;rounded&quot;:0};" parent="on1VTLb09uup9Lcaqehw-1" vertex="1">
          <mxGeometry x="45" y="70" width="10" height="30" as="geometry" />
        </mxCell>
        <mxCell id="on1VTLb09uup9Lcaqehw-3" value="getTransistor()" style="html=1;verticalAlign=bottom;endArrow=block;curved=0;rounded=0;entryX=0;entryY=0;entryDx=0;entryDy=5;entryPerimeter=0;" parent="1" source="w47QC9zgp852gqi-McjJ-2" target="on1VTLb09uup9Lcaqehw-2" edge="1">
          <mxGeometry width="80" relative="1" as="geometry">
            <mxPoint x="241.14" y="120" as="sourcePoint" />
            <mxPoint x="321.14" y="120" as="targetPoint" />
          </mxGeometry>
        </mxCell>
        <mxCell id="on1VTLb09uup9Lcaqehw-4" value="t2: Transistor" style="html=1;verticalAlign=bottom;endArrow=open;dashed=1;endSize=8;curved=0;rounded=0;exitX=0;exitY=1;exitDx=0;exitDy=-5;exitPerimeter=0;" parent="1" source="on1VTLb09uup9Lcaqehw-2" target="w47QC9zgp852gqi-McjJ-2" edge="1">
          <mxGeometry relative="1" as="geometry">
            <mxPoint x="321.14" y="150" as="sourcePoint" />
            <mxPoint x="241.14" y="150" as="targetPoint" />
          </mxGeometry>
        </mxCell>
        <mxCell id="on1VTLb09uup9Lcaqehw-5" value="t2: Transistor" style="shape=umlLifeline;perimeter=lifelinePerimeter;whiteSpace=wrap;html=1;container=1;dropTarget=0;collapsible=0;recursiveResize=0;outlineConnect=0;portConstraint=eastwest;newEdgeStyle={&quot;curved&quot;:0,&quot;rounded&quot;:0};" parent="1" vertex="1">
          <mxGeometry x="461.14" y="50" width="100" height="300" as="geometry" />
        </mxCell>
        <mxCell id="on1VTLb09uup9Lcaqehw-7" value="" style="html=1;points=[[0,0,0,0,5],[0,1,0,0,-5],[1,0,0,0,5],[1,1,0,0,-5]];perimeter=orthogonalPerimeter;outlineConnect=0;targetShapes=umlLifeline;portConstraint=eastwest;newEdgeStyle={&quot;curved&quot;:0,&quot;rounded&quot;:0};" parent="on1VTLb09uup9Lcaqehw-5" vertex="1">
          <mxGeometry x="45" y="150" width="10" height="80" as="geometry" />
        </mxCell>
        <mxCell id="on1VTLb09uup9Lcaqehw-8" value="pairing(t1)" style="html=1;verticalAlign=bottom;endArrow=block;curved=0;rounded=0;entryX=0;entryY=0;entryDx=0;entryDy=5;" parent="1" source="w47QC9zgp852gqi-McjJ-2" target="on1VTLb09uup9Lcaqehw-7" edge="1">
          <mxGeometry relative="1" as="geometry">
            <mxPoint x="435.14" y="225" as="sourcePoint" />
          </mxGeometry>
        </mxCell>
        <mxCell id="on1VTLb09uup9Lcaqehw-9" value="" style="html=1;verticalAlign=bottom;endArrow=open;dashed=1;endSize=8;curved=0;rounded=0;exitX=0;exitY=1;exitDx=0;exitDy=-5;" parent="1" source="on1VTLb09uup9Lcaqehw-7" target="w47QC9zgp852gqi-McjJ-2" edge="1">
          <mxGeometry relative="1" as="geometry">
            <mxPoint x="435.14" y="295" as="targetPoint" />
          </mxGeometry>
        </mxCell>
        <mxCell id="on1VTLb09uup9Lcaqehw-10" value="opt" style="shape=umlFrame;whiteSpace=wrap;html=1;pointerEvents=0;" parent="1" vertex="1">
          <mxGeometry x="71.14" y="170" width="490" height="190" as="geometry" />
        </mxCell>
        <mxCell id="on1VTLb09uup9Lcaqehw-11" value="[ t2 != null ]" style="text;html=1;align=center;verticalAlign=middle;resizable=0;points=[];autosize=1;strokeColor=none;fillColor=none;" parent="1" vertex="1">
          <mxGeometry x="81.14" y="218" width="80" height="30" as="geometry" />
        </mxCell>
        <mxCell id="on1VTLb09uup9Lcaqehw-12" value="" style="html=1;verticalAlign=bottom;endArrow=open;dashed=1;endSize=8;curved=0;rounded=0;exitX=0;exitY=1;exitDx=0;exitDy=-5;exitPerimeter=0;entryX=-0.001;entryY=0.942;entryDx=0;entryDy=0;entryPerimeter=0;" parent="1" source="w47QC9zgp852gqi-McjJ-2" target="Byqw5OLQiMPGduESdiLs-1" edge="1">
          <mxGeometry relative="1" as="geometry">
            <mxPoint x="171.14" y="300" as="sourcePoint" />
            <mxPoint x="81.14" y="305" as="targetPoint" />
          </mxGeometry>
        </mxCell>
        <mxCell id="Byqw5OLQiMPGduESdiLs-1" value="&lt;b&gt;sd&lt;/b&gt;&amp;nbsp;Pair Transistor" style="shape=umlFrame;whiteSpace=wrap;html=1;pointerEvents=0;width=190;height=30;" parent="1" vertex="1">
          <mxGeometry x="21.14" y="10" width="570" height="390" as="geometry" />
        </mxCell>
      </root>
    </mxGraphModel>
  </diagram>
  <diagram id="rt6WvbGxlujpgtnKbi_t" name="RemovePlayer">
    <mxGraphModel dx="1050" dy="629" grid="1" gridSize="10" guides="1" tooltips="1" connect="1" arrows="1" fold="1" page="1" pageScale="1" pageWidth="827" pageHeight="1169" math="0" shadow="0">
      <root>
        <mxCell id="0" />
        <mxCell id="1" parent="0" />
        <mxCell id="OiCEjAehRs_XO8gVq8uf-1" value="gc: GameController" style="shape=umlLifeline;perimeter=lifelinePerimeter;whiteSpace=wrap;html=1;container=1;dropTarget=0;collapsible=0;recursiveResize=0;outlineConnect=0;portConstraint=eastwest;newEdgeStyle={&quot;curved&quot;:0,&quot;rounded&quot;:0};" parent="1" vertex="1">
          <mxGeometry x="142.16" y="80" width="110" height="300" as="geometry" />
        </mxCell>
        <mxCell id="OiCEjAehRs_XO8gVq8uf-2" value="" style="html=1;points=[[0,0,0,0,5],[0,1,0,0,-5],[1,0,0,0,5],[1,1,0,0,-5]];perimeter=orthogonalPerimeter;outlineConnect=0;targetShapes=umlLifeline;portConstraint=eastwest;newEdgeStyle={&quot;curved&quot;:0,&quot;rounded&quot;:0};" parent="OiCEjAehRs_XO8gVq8uf-1" vertex="1">
          <mxGeometry x="50" y="60" width="10" height="190" as="geometry" />
        </mxCell>
        <mxCell id="OiCEjAehRs_XO8gVq8uf-3" value="removePlayer(s)" style="html=1;verticalAlign=bottom;endArrow=block;curved=0;rounded=0;entryX=0;entryY=0;entryDx=0;entryDy=5;entryPerimeter=0;exitX=-0.006;exitY=0.302;exitDx=0;exitDy=0;exitPerimeter=0;" parent="1" source="MYjthJ0yUHZOUdtqsXQf-1" target="OiCEjAehRs_XO8gVq8uf-2" edge="1">
          <mxGeometry width="80" relative="1" as="geometry">
            <mxPoint x="72.16" y="145" as="sourcePoint" />
            <mxPoint x="142.16" y="140" as="targetPoint" />
          </mxGeometry>
        </mxCell>
        <mxCell id="OiCEjAehRs_XO8gVq8uf-4" value="" style="html=1;verticalAlign=bottom;endArrow=open;dashed=1;endSize=8;curved=0;rounded=0;exitX=0;exitY=1;exitDx=0;exitDy=-5;exitPerimeter=0;entryX=0;entryY=0.813;entryDx=0;entryDy=0;entryPerimeter=0;" parent="1" source="OiCEjAehRs_XO8gVq8uf-2" target="MYjthJ0yUHZOUdtqsXQf-1" edge="1">
          <mxGeometry relative="1" as="geometry">
            <mxPoint x="152.16" y="310" as="sourcePoint" />
            <mxPoint x="72.16" y="325" as="targetPoint" />
          </mxGeometry>
        </mxCell>
        <mxCell id="OiCEjAehRs_XO8gVq8uf-7" value="opt" style="shape=umlFrame;whiteSpace=wrap;html=1;pointerEvents=0;" parent="1" vertex="1">
          <mxGeometry x="62.16" y="160" width="300" height="120" as="geometry" />
        </mxCell>
        <mxCell id="JAWiAjhGNDLGLo54TwCN-1" value="" style="html=1;points=[[0,0,0,0,5],[0,1,0,0,-5],[1,0,0,0,5],[1,1,0,0,-5]];perimeter=orthogonalPerimeter;outlineConnect=0;targetShapes=umlLifeline;portConstraint=eastwest;newEdgeStyle={&quot;curved&quot;:0,&quot;rounded&quot;:0};" parent="1" vertex="1">
          <mxGeometry x="197.16" y="190" width="10" height="40" as="geometry" />
        </mxCell>
        <mxCell id="JAWiAjhGNDLGLo54TwCN-2" value="endGame()" style="html=1;align=left;spacingLeft=2;endArrow=block;rounded=0;edgeStyle=orthogonalEdgeStyle;curved=0;rounded=0;" parent="1" target="JAWiAjhGNDLGLo54TwCN-1" edge="1">
          <mxGeometry relative="1" as="geometry">
            <mxPoint x="202.16" y="170" as="sourcePoint" />
            <Array as="points">
              <mxPoint x="232.16" y="200" />
            </Array>
          </mxGeometry>
        </mxCell>
        <mxCell id="JAWiAjhGNDLGLo54TwCN-3" value="&lt;font style=&quot;font-size: 10px;&quot;&gt;[ studentCount == 0 ]&lt;/font&gt;" style="text;html=1;align=center;verticalAlign=middle;resizable=0;points=[];autosize=1;strokeColor=none;fillColor=none;" parent="1" vertex="1">
          <mxGeometry x="57.16" y="195" width="120" height="30" as="geometry" />
        </mxCell>
        <mxCell id="MYjthJ0yUHZOUdtqsXQf-1" value="&lt;b&gt;sd&lt;/b&gt;&amp;nbsp;RemovePlayer" style="shape=umlFrame;whiteSpace=wrap;html=1;pointerEvents=0;width=190;height=30;" parent="1" vertex="1">
          <mxGeometry x="22.16" y="40" width="360" height="350" as="geometry" />
        </mxCell>
      </root>
    </mxGraphModel>
  </diagram>
  <diagram id="IxftamvqYKPUZco_t-9-" name="StudentDie">
    <mxGraphModel dx="1290" dy="629" grid="1" gridSize="10" guides="1" tooltips="1" connect="1" arrows="1" fold="1" page="1" pageScale="1" pageWidth="827" pageHeight="1169" math="0" shadow="0">
      <root>
        <mxCell id="0" />
        <mxCell id="1" parent="0" />
        <mxCell id="yYTqA8t66QmCQwtPzxXl-1" value="s: Student" style="shape=umlLifeline;perimeter=lifelinePerimeter;whiteSpace=wrap;html=1;container=1;dropTarget=0;collapsible=0;recursiveResize=0;outlineConnect=0;portConstraint=eastwest;newEdgeStyle={&quot;curved&quot;:0,&quot;rounded&quot;:0};" parent="1" vertex="1">
          <mxGeometry x="150.44" y="80" width="100" height="240" as="geometry" />
        </mxCell>
        <mxCell id="yYTqA8t66QmCQwtPzxXl-2" value="" style="html=1;points=[[0,0,0,0,5],[0,1,0,0,-5],[1,0,0,0,5],[1,1,0,0,-5]];perimeter=orthogonalPerimeter;outlineConnect=0;targetShapes=umlLifeline;portConstraint=eastwest;newEdgeStyle={&quot;curved&quot;:0,&quot;rounded&quot;:0};" parent="yYTqA8t66QmCQwtPzxXl-1" vertex="1">
          <mxGeometry x="45" y="60" width="10" height="150" as="geometry" />
        </mxCell>
        <mxCell id="yYTqA8t66QmCQwtPzxXl-5" value="gc: GameController" style="shape=umlLifeline;perimeter=lifelinePerimeter;whiteSpace=wrap;html=1;container=1;dropTarget=0;collapsible=0;recursiveResize=0;outlineConnect=0;portConstraint=eastwest;newEdgeStyle={&quot;curved&quot;:0,&quot;rounded&quot;:0};" parent="1" vertex="1">
          <mxGeometry x="310.44" y="80" width="110" height="240" as="geometry" />
        </mxCell>
        <mxCell id="yYTqA8t66QmCQwtPzxXl-7" value="" style="html=1;points=[[0,0,0,0,5],[0,1,0,0,-5],[1,0,0,0,5],[1,1,0,0,-5]];perimeter=orthogonalPerimeter;outlineConnect=0;targetShapes=umlLifeline;portConstraint=eastwest;newEdgeStyle={&quot;curved&quot;:0,&quot;rounded&quot;:0};" parent="yYTqA8t66QmCQwtPzxXl-5" vertex="1">
          <mxGeometry x="50" y="130" width="10" height="50" as="geometry" />
        </mxCell>
        <mxCell id="yYTqA8t66QmCQwtPzxXl-9" value="" style="html=1;verticalAlign=bottom;endArrow=open;dashed=1;endSize=8;curved=0;rounded=0;exitX=0;exitY=1;exitDx=0;exitDy=-5;" parent="1" source="yYTqA8t66QmCQwtPzxXl-7" target="yYTqA8t66QmCQwtPzxXl-2" edge="1">
          <mxGeometry relative="1" as="geometry">
            <mxPoint x="290.44" y="235" as="targetPoint" />
          </mxGeometry>
        </mxCell>
        <mxCell id="yYTqA8t66QmCQwtPzxXl-8" value="removePlayer(s)" style="html=1;verticalAlign=bottom;endArrow=block;curved=0;rounded=0;entryX=0;entryY=0;entryDx=0;entryDy=5;" parent="1" source="yYTqA8t66QmCQwtPzxXl-2" target="yYTqA8t66QmCQwtPzxXl-7" edge="1">
          <mxGeometry relative="1" as="geometry">
            <mxPoint x="290.44" y="165" as="sourcePoint" />
          </mxGeometry>
        </mxCell>
        <mxCell id="yYTqA8t66QmCQwtPzxXl-10" value="opt" style="shape=umlFrame;whiteSpace=wrap;html=1;pointerEvents=0;" parent="1" vertex="1">
          <mxGeometry x="80.44" y="180" width="350" height="90" as="geometry" />
        </mxCell>
        <mxCell id="yYTqA8t66QmCQwtPzxXl-11" value="&lt;font style=&quot;font-size: 10px;&quot;&gt;[ isProtected == false ]&lt;/font&gt;" style="text;html=1;align=center;verticalAlign=middle;resizable=0;points=[];autosize=1;strokeColor=none;fillColor=none;" parent="1" vertex="1">
          <mxGeometry x="80.44" y="215" width="120" height="30" as="geometry" />
        </mxCell>
        <mxCell id="xoyaUTkBVBAPCMw8UOJh-1" value="&lt;b&gt;sd&lt;/b&gt;&amp;nbsp;Student Die" style="shape=umlFrame;whiteSpace=wrap;html=1;pointerEvents=0;width=190;height=30;" parent="1" vertex="1">
          <mxGeometry x="30.44" y="30" width="440" height="310" as="geometry" />
        </mxCell>
        <mxCell id="yYTqA8t66QmCQwtPzxXl-3" value="die()" style="html=1;verticalAlign=bottom;endArrow=block;curved=0;rounded=0;entryX=0;entryY=0;entryDx=0;entryDy=5;exitX=-0.001;exitY=0.37;exitDx=0;exitDy=0;exitPerimeter=0;" parent="1" source="xoyaUTkBVBAPCMw8UOJh-1" target="yYTqA8t66QmCQwtPzxXl-2" edge="1">
          <mxGeometry relative="1" as="geometry">
            <mxPoint x="125.44" y="145" as="sourcePoint" />
          </mxGeometry>
        </mxCell>
        <mxCell id="yYTqA8t66QmCQwtPzxXl-4" value="" style="html=1;verticalAlign=bottom;endArrow=open;dashed=1;endSize=8;curved=0;rounded=0;exitX=0;exitY=1;exitDx=0;exitDy=-5;entryX=0.004;entryY=0.817;entryDx=0;entryDy=0;entryPerimeter=0;" parent="1" source="yYTqA8t66QmCQwtPzxXl-2" target="xoyaUTkBVBAPCMw8UOJh-1" edge="1">
          <mxGeometry relative="1" as="geometry">
            <mxPoint x="90.44" y="285" as="targetPoint" />
          </mxGeometry>
        </mxCell>
      </root>
    </mxGraphModel>
  </diagram>
  <diagram id="QuX-uS5e1_MZbIyXXM3N" name="Drop Item">
    <mxGraphModel dx="1290" dy="629" grid="1" gridSize="10" guides="1" tooltips="1" connect="1" arrows="1" fold="1" page="1" pageScale="1" pageWidth="827" pageHeight="1169" math="0" shadow="0">
      <root>
        <mxCell id="0" />
        <mxCell id="1" parent="0" />
        <mxCell id="7LzNgcIABrwyk3v2yIyB-1" value="s: Student" style="shape=umlLifeline;perimeter=lifelinePerimeter;whiteSpace=wrap;html=1;container=0;dropTarget=0;collapsible=0;recursiveResize=0;outlineConnect=0;portConstraint=eastwest;newEdgeStyle={&quot;edgeStyle&quot;:&quot;elbowEdgeStyle&quot;,&quot;elbow&quot;:&quot;vertical&quot;,&quot;curved&quot;:0,&quot;rounded&quot;:0};" parent="1" vertex="1">
          <mxGeometry x="100" y="60" width="100" height="300" as="geometry" />
        </mxCell>
        <mxCell id="7LzNgcIABrwyk3v2yIyB-2" value="" style="html=1;points=[];perimeter=orthogonalPerimeter;outlineConnect=0;targetShapes=umlLifeline;portConstraint=eastwest;newEdgeStyle={&quot;edgeStyle&quot;:&quot;elbowEdgeStyle&quot;,&quot;elbow&quot;:&quot;vertical&quot;,&quot;curved&quot;:0,&quot;rounded&quot;:0};" parent="7LzNgcIABrwyk3v2yIyB-1" vertex="1">
          <mxGeometry x="45" y="70" width="10" height="190" as="geometry" />
        </mxCell>
        <mxCell id="7LzNgcIABrwyk3v2yIyB-3" value="dropItem(i)" style="html=1;verticalAlign=bottom;startArrow=none;endArrow=block;startSize=8;edgeStyle=elbowEdgeStyle;elbow=horizontal;curved=0;rounded=0;startFill=0;" parent="7LzNgcIABrwyk3v2yIyB-1" target="7LzNgcIABrwyk3v2yIyB-2" edge="1">
          <mxGeometry relative="1" as="geometry">
            <mxPoint x="-60" y="70" as="sourcePoint" />
            <Array as="points">
              <mxPoint x="10" y="70" />
            </Array>
          </mxGeometry>
        </mxCell>
        <mxCell id="7LzNgcIABrwyk3v2yIyB-4" value="r: Room" style="shape=umlLifeline;perimeter=lifelinePerimeter;whiteSpace=wrap;html=1;container=0;dropTarget=0;collapsible=0;recursiveResize=0;outlineConnect=0;portConstraint=eastwest;newEdgeStyle={&quot;edgeStyle&quot;:&quot;elbowEdgeStyle&quot;,&quot;elbow&quot;:&quot;vertical&quot;,&quot;curved&quot;:0,&quot;rounded&quot;:0};" parent="1" vertex="1">
          <mxGeometry x="320" y="60" width="100" height="300" as="geometry" />
        </mxCell>
        <mxCell id="7LzNgcIABrwyk3v2yIyB-5" value="" style="html=1;points=[];perimeter=orthogonalPerimeter;outlineConnect=0;targetShapes=umlLifeline;portConstraint=eastwest;newEdgeStyle={&quot;edgeStyle&quot;:&quot;elbowEdgeStyle&quot;,&quot;elbow&quot;:&quot;vertical&quot;,&quot;curved&quot;:0,&quot;rounded&quot;:0};" parent="7LzNgcIABrwyk3v2yIyB-4" vertex="1">
          <mxGeometry x="45" y="80" width="10" height="170" as="geometry" />
        </mxCell>
        <mxCell id="7LzNgcIABrwyk3v2yIyB-6" value="addItem(i)" style="html=1;verticalAlign=bottom;endArrow=block;edgeStyle=elbowEdgeStyle;elbow=vertical;curved=0;rounded=0;" parent="1" source="7LzNgcIABrwyk3v2yIyB-2" target="7LzNgcIABrwyk3v2yIyB-5" edge="1">
          <mxGeometry relative="1" as="geometry">
            <mxPoint x="215" y="160" as="sourcePoint" />
            <Array as="points">
              <mxPoint x="200" y="150" />
            </Array>
          </mxGeometry>
        </mxCell>
        <mxCell id="7LzNgcIABrwyk3v2yIyB-7" value="" style="html=1;verticalAlign=bottom;endArrow=open;dashed=1;endSize=8;edgeStyle=elbowEdgeStyle;elbow=horizontal;curved=0;rounded=0;" parent="1" edge="1">
          <mxGeometry relative="1" as="geometry">
            <mxPoint x="155" y="300" as="targetPoint" />
            <Array as="points">
              <mxPoint x="270" y="300" />
              <mxPoint x="210" y="420" />
            </Array>
            <mxPoint x="365" y="300" as="sourcePoint" />
          </mxGeometry>
        </mxCell>
        <mxCell id="7LzNgcIABrwyk3v2yIyB-8" value="&lt;b&gt;sd&lt;/b&gt;&amp;nbsp;Drop Item" style="shape=umlFrame;whiteSpace=wrap;html=1;pointerEvents=0;width=190;height=30;" parent="1" vertex="1">
          <mxGeometry x="20" y="20" width="430" height="360" as="geometry" />
        </mxCell>
      </root>
    </mxGraphModel>
  </diagram>
  <diagram id="T95_M143qUyYFp4vnxam" name="Room Split">
    <mxGraphModel dx="1290" dy="629" grid="1" gridSize="10" guides="1" tooltips="1" connect="1" arrows="1" fold="1" page="1" pageScale="1" pageWidth="827" pageHeight="1169" math="0" shadow="0">
      <root>
        <mxCell id="0" />
        <mxCell id="1" parent="0" />
        <mxCell id="8cDikxbX1Z6uaQlweSN5-1" value="r1: Room" style="shape=umlLifeline;perimeter=lifelinePerimeter;whiteSpace=wrap;html=1;container=1;dropTarget=0;collapsible=0;recursiveResize=0;outlineConnect=0;portConstraint=eastwest;newEdgeStyle={&quot;curved&quot;:0,&quot;rounded&quot;:0};" vertex="1" parent="1">
          <mxGeometry x="330" y="60" width="100" height="980" as="geometry" />
        </mxCell>
        <mxCell id="8cDikxbX1Z6uaQlweSN5-2" value="" style="html=1;points=[[0,0,0,0,5],[0,1,0,0,-5],[1,0,0,0,5],[1,1,0,0,-5]];perimeter=orthogonalPerimeter;outlineConnect=0;targetShapes=umlLifeline;portConstraint=eastwest;newEdgeStyle={&quot;curved&quot;:0,&quot;rounded&quot;:0};" vertex="1" parent="8cDikxbX1Z6uaQlweSN5-1">
          <mxGeometry x="45" y="100" width="10" height="30" as="geometry" />
        </mxCell>
        <mxCell id="8cDikxbX1Z6uaQlweSN5-3" value="" style="html=1;points=[[0,0,0,0,5],[0,1,0,0,-5],[1,0,0,0,5],[1,1,0,0,-5]];perimeter=orthogonalPerimeter;outlineConnect=0;targetShapes=umlLifeline;portConstraint=eastwest;newEdgeStyle={&quot;curved&quot;:0,&quot;rounded&quot;:0};" vertex="1" parent="8cDikxbX1Z6uaQlweSN5-1">
          <mxGeometry x="45" y="250" width="10" height="80" as="geometry" />
        </mxCell>
        <mxCell id="8cDikxbX1Z6uaQlweSN5-7" value="removeCharacter(c)" style="html=1;verticalAlign=bottom;endArrow=block;curved=0;rounded=0;" edge="1" parent="8cDikxbX1Z6uaQlweSN5-1" target="8cDikxbX1Z6uaQlweSN5-8">
          <mxGeometry width="80" relative="1" as="geometry">
            <mxPoint x="-157.5" y="820" as="sourcePoint" />
            <mxPoint x="202.5" y="770" as="targetPoint" />
          </mxGeometry>
        </mxCell>
        <mxCell id="8cDikxbX1Z6uaQlweSN5-8" value="" style="html=1;points=[[0,0,0,0,5],[0,1,0,0,-5],[1,0,0,0,5],[1,1,0,0,-5]];perimeter=orthogonalPerimeter;outlineConnect=0;targetShapes=umlLifeline;portConstraint=eastwest;newEdgeStyle={&quot;curved&quot;:0,&quot;rounded&quot;:0};" vertex="1" parent="8cDikxbX1Z6uaQlweSN5-1">
          <mxGeometry x="47.5" y="820" width="10" height="80" as="geometry" />
        </mxCell>
        <mxCell id="8cDikxbX1Z6uaQlweSN5-9" value="" style="html=1;verticalAlign=bottom;endArrow=open;dashed=1;endSize=8;curved=0;rounded=0;" edge="1" parent="8cDikxbX1Z6uaQlweSN5-1">
          <mxGeometry relative="1" as="geometry">
            <mxPoint x="47.5" y="880" as="sourcePoint" />
            <mxPoint x="-157.5" y="880" as="targetPoint" />
          </mxGeometry>
        </mxCell>
        <mxCell id="8cDikxbX1Z6uaQlweSN5-10" value="gc: GameController" style="shape=umlLifeline;perimeter=lifelinePerimeter;whiteSpace=wrap;html=1;container=1;dropTarget=0;collapsible=0;recursiveResize=0;outlineConnect=0;portConstraint=eastwest;newEdgeStyle={&quot;curved&quot;:0,&quot;rounded&quot;:0};" vertex="1" parent="1">
          <mxGeometry x="110" y="60" width="110" height="990" as="geometry" />
        </mxCell>
        <mxCell id="8cDikxbX1Z6uaQlweSN5-11" value="" style="html=1;points=[[0,0,0,0,5],[0,1,0,0,-5],[1,0,0,0,5],[1,1,0,0,-5]];perimeter=orthogonalPerimeter;outlineConnect=0;targetShapes=umlLifeline;portConstraint=eastwest;newEdgeStyle={&quot;curved&quot;:0,&quot;rounded&quot;:0};" vertex="1" parent="8cDikxbX1Z6uaQlweSN5-10">
          <mxGeometry x="50" y="80" width="10" height="900" as="geometry" />
        </mxCell>
        <mxCell id="8cDikxbX1Z6uaQlweSN5-13" value="" style="html=1;points=[[0,0,0,0,5],[0,1,0,0,-5],[1,0,0,0,5],[1,1,0,0,-5]];perimeter=orthogonalPerimeter;outlineConnect=0;targetShapes=umlLifeline;portConstraint=eastwest;newEdgeStyle={&quot;curved&quot;:0,&quot;rounded&quot;:0};" vertex="1" parent="8cDikxbX1Z6uaQlweSN5-10">
          <mxGeometry x="55" y="170" width="10" height="30" as="geometry" />
        </mxCell>
        <mxCell id="8cDikxbX1Z6uaQlweSN5-14" value="n2: getHalfTheRooms(n1)" style="html=1;align=left;spacingLeft=2;endArrow=block;rounded=0;edgeStyle=orthogonalEdgeStyle;curved=0;rounded=0;" edge="1" parent="8cDikxbX1Z6uaQlweSN5-10" target="8cDikxbX1Z6uaQlweSN5-13">
          <mxGeometry relative="1" as="geometry">
            <mxPoint x="60" y="150" as="sourcePoint" />
            <Array as="points">
              <mxPoint x="90" y="180" />
            </Array>
          </mxGeometry>
        </mxCell>
        <mxCell id="8cDikxbX1Z6uaQlweSN5-15" value="" style="html=1;points=[[0,0,0,0,5],[0,1,0,0,-5],[1,0,0,0,5],[1,1,0,0,-5]];perimeter=orthogonalPerimeter;outlineConnect=0;targetShapes=umlLifeline;portConstraint=eastwest;newEdgeStyle={&quot;curved&quot;:0,&quot;rounded&quot;:0};" vertex="1" parent="8cDikxbX1Z6uaQlweSN5-10">
          <mxGeometry x="55" y="460" width="10" height="30" as="geometry" />
        </mxCell>
        <mxCell id="8cDikxbX1Z6uaQlweSN5-16" value="r2: Room" style="shape=umlLifeline;perimeter=lifelinePerimeter;whiteSpace=wrap;html=1;container=1;dropTarget=0;collapsible=0;recursiveResize=0;outlineConnect=0;portConstraint=eastwest;newEdgeStyle={&quot;curved&quot;:0,&quot;rounded&quot;:0};" vertex="1" parent="1">
          <mxGeometry x="520" y="60" width="100" height="980" as="geometry" />
        </mxCell>
        <mxCell id="8cDikxbX1Z6uaQlweSN5-17" value="" style="html=1;points=[[0,0,0,0,5],[0,1,0,0,-5],[1,0,0,0,5],[1,1,0,0,-5]];perimeter=orthogonalPerimeter;outlineConnect=0;targetShapes=umlLifeline;portConstraint=eastwest;newEdgeStyle={&quot;curved&quot;:0,&quot;rounded&quot;:0};" vertex="1" parent="8cDikxbX1Z6uaQlweSN5-16">
          <mxGeometry x="45" y="210" width="10" height="30" as="geometry" />
        </mxCell>
        <mxCell id="8cDikxbX1Z6uaQlweSN5-18" value="getNeighbours()" style="html=1;verticalAlign=bottom;endArrow=block;curved=0;rounded=0;entryX=0;entryY=0;entryDx=0;entryDy=5;" edge="1" parent="1" source="8cDikxbX1Z6uaQlweSN5-11" target="8cDikxbX1Z6uaQlweSN5-2">
          <mxGeometry relative="1" as="geometry">
            <mxPoint x="305" y="165" as="sourcePoint" />
          </mxGeometry>
        </mxCell>
        <mxCell id="8cDikxbX1Z6uaQlweSN5-19" value="n1: neighbours" style="html=1;verticalAlign=bottom;endArrow=open;dashed=1;endSize=8;curved=0;rounded=0;" edge="1" parent="1">
          <mxGeometry relative="1" as="geometry">
            <mxPoint x="375" y="190" as="sourcePoint" />
            <mxPoint x="165.5" y="190" as="targetPoint" />
            <Array as="points">
              <mxPoint x="285.5" y="190" />
            </Array>
          </mxGeometry>
        </mxCell>
        <mxCell id="8cDikxbX1Z6uaQlweSN5-20" value="addNeighbours(n2)" style="html=1;verticalAlign=bottom;endArrow=block;curved=0;rounded=0;" edge="1" parent="1">
          <mxGeometry width="80" relative="1" as="geometry">
            <mxPoint x="170" y="270" as="sourcePoint" />
            <mxPoint x="569.5" y="270" as="targetPoint" />
          </mxGeometry>
        </mxCell>
        <mxCell id="8cDikxbX1Z6uaQlweSN5-21" value="" style="html=1;verticalAlign=bottom;endArrow=open;dashed=1;endSize=8;curved=0;rounded=0;" edge="1" parent="1">
          <mxGeometry relative="1" as="geometry">
            <mxPoint x="565" y="300" as="sourcePoint" />
            <mxPoint x="164.5" y="300" as="targetPoint" />
          </mxGeometry>
        </mxCell>
        <mxCell id="8cDikxbX1Z6uaQlweSN5-22" value="removeNeighbours(n2)" style="html=1;verticalAlign=bottom;endArrow=block;curved=0;rounded=0;" edge="1" parent="1" target="8cDikxbX1Z6uaQlweSN5-3">
          <mxGeometry width="80" relative="1" as="geometry">
            <mxPoint x="170" y="320" as="sourcePoint" />
            <mxPoint x="450" y="320" as="targetPoint" />
          </mxGeometry>
        </mxCell>
        <mxCell id="8cDikxbX1Z6uaQlweSN5-23" value="" style="html=1;verticalAlign=bottom;endArrow=open;dashed=1;endSize=8;curved=0;rounded=0;" edge="1" parent="1" target="8cDikxbX1Z6uaQlweSN5-11">
          <mxGeometry relative="1" as="geometry">
            <mxPoint x="375" y="380" as="sourcePoint" />
            <mxPoint x="180" y="380" as="targetPoint" />
          </mxGeometry>
        </mxCell>
        <mxCell id="8cDikxbX1Z6uaQlweSN5-24" value="" style="html=1;points=[[0,0,0,0,5],[0,1,0,0,-5],[1,0,0,0,5],[1,1,0,0,-5]];perimeter=orthogonalPerimeter;outlineConnect=0;targetShapes=umlLifeline;portConstraint=eastwest;newEdgeStyle={&quot;curved&quot;:0,&quot;rounded&quot;:0};" vertex="1" parent="1">
          <mxGeometry x="375" y="410" width="10" height="80" as="geometry" />
        </mxCell>
        <mxCell id="8cDikxbX1Z6uaQlweSN5-25" value="" style="html=1;points=[[0,0,0,0,5],[0,1,0,0,-5],[1,0,0,0,5],[1,1,0,0,-5]];perimeter=orthogonalPerimeter;outlineConnect=0;targetShapes=umlLifeline;portConstraint=eastwest;newEdgeStyle={&quot;curved&quot;:0,&quot;rounded&quot;:0};" vertex="1" parent="1">
          <mxGeometry x="375" y="600" width="10" height="30" as="geometry" />
        </mxCell>
        <mxCell id="8cDikxbX1Z6uaQlweSN5-26" value="" style="html=1;points=[[0,0,0,0,5],[0,1,0,0,-5],[1,0,0,0,5],[1,1,0,0,-5]];perimeter=orthogonalPerimeter;outlineConnect=0;targetShapes=umlLifeline;portConstraint=eastwest;newEdgeStyle={&quot;curved&quot;:0,&quot;rounded&quot;:0};" vertex="1" parent="1">
          <mxGeometry x="565" y="554" width="10" height="30" as="geometry" />
        </mxCell>
        <mxCell id="8cDikxbX1Z6uaQlweSN5-27" value="getItems()" style="html=1;verticalAlign=bottom;endArrow=block;curved=0;rounded=0;entryX=0;entryY=0;entryDx=0;entryDy=5;" edge="1" parent="1" target="8cDikxbX1Z6uaQlweSN5-24">
          <mxGeometry relative="1" as="geometry">
            <mxPoint x="170" y="415" as="sourcePoint" />
          </mxGeometry>
        </mxCell>
        <mxCell id="8cDikxbX1Z6uaQlweSN5-28" value="i1: items" style="html=1;verticalAlign=bottom;endArrow=open;dashed=1;endSize=8;curved=0;rounded=0;" edge="1" parent="1">
          <mxGeometry relative="1" as="geometry">
            <mxPoint x="380" y="480" as="sourcePoint" />
            <mxPoint x="170" y="480" as="targetPoint" />
            <Array as="points">
              <mxPoint x="290" y="480" />
            </Array>
          </mxGeometry>
        </mxCell>
        <mxCell id="8cDikxbX1Z6uaQlweSN5-29" value="addItems(i2)" style="html=1;verticalAlign=bottom;endArrow=block;curved=0;rounded=0;" edge="1" parent="1">
          <mxGeometry width="80" relative="1" as="geometry">
            <mxPoint x="170" y="564" as="sourcePoint" />
            <mxPoint x="570" y="564" as="targetPoint" />
          </mxGeometry>
        </mxCell>
        <mxCell id="8cDikxbX1Z6uaQlweSN5-30" value="" style="html=1;verticalAlign=bottom;endArrow=open;dashed=1;endSize=8;curved=0;rounded=0;" edge="1" parent="1">
          <mxGeometry relative="1" as="geometry">
            <mxPoint x="560.5" y="584" as="sourcePoint" />
            <mxPoint x="160" y="584" as="targetPoint" />
          </mxGeometry>
        </mxCell>
        <mxCell id="8cDikxbX1Z6uaQlweSN5-31" value="removeItems(i2)" style="html=1;verticalAlign=bottom;endArrow=block;curved=0;rounded=0;" edge="1" parent="1" target="8cDikxbX1Z6uaQlweSN5-25">
          <mxGeometry width="80" relative="1" as="geometry">
            <mxPoint x="170" y="610" as="sourcePoint" />
            <mxPoint x="450" y="610" as="targetPoint" />
          </mxGeometry>
        </mxCell>
        <mxCell id="8cDikxbX1Z6uaQlweSN5-32" value="" style="html=1;verticalAlign=bottom;endArrow=open;dashed=1;endSize=8;curved=0;rounded=0;" edge="1" parent="1">
          <mxGeometry relative="1" as="geometry">
            <mxPoint x="375" y="630" as="sourcePoint" />
            <mxPoint x="160" y="630" as="targetPoint" />
          </mxGeometry>
        </mxCell>
        <mxCell id="8cDikxbX1Z6uaQlweSN5-33" value="i2: getHalfTheItems(i1)" style="html=1;align=left;spacingLeft=2;endArrow=block;rounded=0;edgeStyle=orthogonalEdgeStyle;curved=0;rounded=0;" edge="1" parent="1">
          <mxGeometry relative="1" as="geometry">
            <mxPoint x="170" y="500" as="sourcePoint" />
            <Array as="points">
              <mxPoint x="220" y="500" />
              <mxPoint x="220" y="530" />
            </Array>
            <mxPoint x="175" y="530" as="targetPoint" />
          </mxGeometry>
        </mxCell>
        <mxCell id="8cDikxbX1Z6uaQlweSN5-34" value="loop" style="shape=umlFrame;whiteSpace=wrap;html=1;pointerEvents=0;" vertex="1" parent="1">
          <mxGeometry x="52.5" y="700" width="615" height="290" as="geometry" />
        </mxCell>
        <mxCell id="8cDikxbX1Z6uaQlweSN5-35" value="addCharacter(c)" style="html=1;verticalAlign=bottom;endArrow=block;curved=0;rounded=0;" edge="1" parent="1" target="8cDikxbX1Z6uaQlweSN5-36">
          <mxGeometry width="80" relative="1" as="geometry">
            <mxPoint x="172.5" y="798" as="sourcePoint" />
            <mxPoint x="572.5" y="800" as="targetPoint" />
          </mxGeometry>
        </mxCell>
        <mxCell id="8cDikxbX1Z6uaQlweSN5-36" value="" style="html=1;points=[[0,0,0,0,5],[0,1,0,0,-5],[1,0,0,0,5],[1,1,0,0,-5]];perimeter=orthogonalPerimeter;outlineConnect=0;targetShapes=umlLifeline;portConstraint=eastwest;newEdgeStyle={&quot;curved&quot;:0,&quot;rounded&quot;:0};" vertex="1" parent="1">
          <mxGeometry x="567.5" y="790" width="10" height="80" as="geometry" />
        </mxCell>
        <mxCell id="8cDikxbX1Z6uaQlweSN5-37" value="" style="html=1;verticalAlign=bottom;endArrow=open;dashed=1;endSize=8;curved=0;rounded=0;" edge="1" parent="1">
          <mxGeometry relative="1" as="geometry">
            <mxPoint x="567.5" y="860" as="sourcePoint" />
            <mxPoint x="172.5" y="860" as="targetPoint" />
          </mxGeometry>
        </mxCell>
        <mxCell id="8cDikxbX1Z6uaQlweSN5-38" value="[For all c:&lt;br&gt;listOfCharacters]" style="text;html=1;align=center;verticalAlign=middle;resizable=0;points=[];autosize=1;strokeColor=none;fillColor=none;" vertex="1" parent="1">
          <mxGeometry x="52.5" y="735" width="110" height="40" as="geometry" />
        </mxCell>
        <mxCell id="8cDikxbX1Z6uaQlweSN5-39" value="opt" style="shape=umlFrame;whiteSpace=wrap;html=1;pointerEvents=0;" vertex="1" parent="1">
          <mxGeometry x="87.5" y="775" width="545" height="200" as="geometry" />
        </mxCell>
        <mxCell id="8cDikxbX1Z6uaQlweSN5-40" value="[ random ]" style="text;html=1;align=center;verticalAlign=middle;resizable=0;points=[];autosize=1;strokeColor=none;fillColor=none;" vertex="1" parent="1">
          <mxGeometry x="82.5" y="808" width="80" height="30" as="geometry" />
        </mxCell>
        <mxCell id="8cDikxbX1Z6uaQlweSN5-41" value="" style="html=1;verticalAlign=bottom;endArrow=open;dashed=1;endSize=8;curved=0;rounded=0;exitX=0;exitY=1;exitDx=0;exitDy=-5;exitPerimeter=0;" edge="1" parent="1" source="8cDikxbX1Z6uaQlweSN5-11">
          <mxGeometry relative="1" as="geometry">
            <mxPoint x="130" y="1360" as="sourcePoint" />
            <mxPoint x="10" y="1040" as="targetPoint" />
          </mxGeometry>
        </mxCell>
        <mxCell id="8cDikxbX1Z6uaQlweSN5-84" value="&lt;b&gt;sd &lt;/b&gt;Room Split" style="shape=umlFrame;whiteSpace=wrap;html=1;pointerEvents=0;width=140;height=30;" vertex="1" parent="1">
          <mxGeometry x="20" y="10" width="680" height="1090" as="geometry" />
        </mxCell>
        <mxCell id="8cDikxbX1Z6uaQlweSN5-12" value="splitRoom(r)" style="html=1;verticalAlign=bottom;startArrow=none;endArrow=block;startSize=8;curved=0;rounded=0;entryX=0;entryY=0;entryDx=0;entryDy=5;startFill=0;exitX=-0.003;exitY=0.098;exitDx=0;exitDy=0;exitPerimeter=0;" edge="1" parent="1" target="8cDikxbX1Z6uaQlweSN5-11" source="8cDikxbX1Z6uaQlweSN5-84">
          <mxGeometry relative="1" as="geometry">
            <mxPoint x="80" y="145" as="sourcePoint" />
          </mxGeometry>
        </mxCell>
        <mxCell id="8cDikxbX1Z6uaQlweSN5-4" value="" style="html=1;points=[[0,0,0,0,5],[0,1,0,0,-5],[1,0,0,0,5],[1,1,0,0,-5]];perimeter=orthogonalPerimeter;outlineConnect=0;targetShapes=umlLifeline;portConstraint=eastwest;newEdgeStyle={&quot;curved&quot;:0,&quot;rounded&quot;:0};" vertex="1" parent="1">
          <mxGeometry x="375" y="650" width="10" height="30" as="geometry" />
        </mxCell>
        <mxCell id="8cDikxbX1Z6uaQlweSN5-5" value="getCharacters()" style="html=1;verticalAlign=bottom;endArrow=block;curved=0;rounded=0;entryX=0;entryY=0;entryDx=0;entryDy=5;" edge="1" parent="1" target="8cDikxbX1Z6uaQlweSN5-4">
          <mxGeometry relative="1" as="geometry">
            <mxPoint x="170" y="655" as="sourcePoint" />
          </mxGeometry>
        </mxCell>
        <mxCell id="8cDikxbX1Z6uaQlweSN5-6" value="c: characters" style="html=1;verticalAlign=bottom;endArrow=open;dashed=1;endSize=8;curved=0;rounded=0;" edge="1" parent="1">
          <mxGeometry relative="1" as="geometry">
            <mxPoint x="380" y="680" as="sourcePoint" />
            <mxPoint x="170" y="680" as="targetPoint" />
            <Array as="points" />
          </mxGeometry>
        </mxCell>
      </root>
    </mxGraphModel>
  </diagram>
  <diagram id="D18bpm9dHqi_tToG2CUO" name="UseCamambert">
    <mxGraphModel dx="1290" dy="629" grid="1" gridSize="10" guides="1" tooltips="1" connect="1" arrows="1" fold="1" page="1" pageScale="1" pageWidth="827" pageHeight="1169" math="0" shadow="0">
      <root>
        <mxCell id="0" />
        <mxCell id="1" parent="0" />
        <mxCell id="qnjc02Wvy7SpCg5v6cbO-1" value="c: Camambert" style="shape=umlLifeline;perimeter=lifelinePerimeter;whiteSpace=wrap;html=1;container=0;dropTarget=0;collapsible=0;recursiveResize=0;outlineConnect=0;portConstraint=eastwest;newEdgeStyle={&quot;edgeStyle&quot;:&quot;elbowEdgeStyle&quot;,&quot;elbow&quot;:&quot;vertical&quot;,&quot;curved&quot;:0,&quot;rounded&quot;:0};" vertex="1" parent="1">
          <mxGeometry x="40" y="40" width="100" height="640" as="geometry" />
        </mxCell>
        <mxCell id="qnjc02Wvy7SpCg5v6cbO-2" value="" style="html=1;points=[];perimeter=orthogonalPerimeter;outlineConnect=0;targetShapes=umlLifeline;portConstraint=eastwest;newEdgeStyle={&quot;edgeStyle&quot;:&quot;elbowEdgeStyle&quot;,&quot;elbow&quot;:&quot;vertical&quot;,&quot;curved&quot;:0,&quot;rounded&quot;:0};" vertex="1" parent="qnjc02Wvy7SpCg5v6cbO-1">
          <mxGeometry x="45" y="70" width="10" height="560" as="geometry" />
        </mxCell>
        <mxCell id="qnjc02Wvy7SpCg5v6cbO-3" value="use()" style="html=1;verticalAlign=bottom;startArrow=none;endArrow=block;startSize=8;edgeStyle=elbowEdgeStyle;elbow=vertical;curved=0;rounded=0;startFill=0;" edge="1" parent="qnjc02Wvy7SpCg5v6cbO-1" target="qnjc02Wvy7SpCg5v6cbO-2">
          <mxGeometry relative="1" as="geometry">
            <mxPoint x="-15" y="70" as="sourcePoint" />
          </mxGeometry>
        </mxCell>
        <mxCell id="qnjc02Wvy7SpCg5v6cbO-4" value="r1: Simple Room" style="shape=umlLifeline;perimeter=lifelinePerimeter;whiteSpace=wrap;html=1;container=0;dropTarget=0;collapsible=0;recursiveResize=0;outlineConnect=0;portConstraint=eastwest;newEdgeStyle={&quot;edgeStyle&quot;:&quot;elbowEdgeStyle&quot;,&quot;elbow&quot;:&quot;vertical&quot;,&quot;curved&quot;:0,&quot;rounded&quot;:0};" vertex="1" parent="1">
          <mxGeometry x="220" y="40" width="100" height="640" as="geometry" />
        </mxCell>
        <mxCell id="qnjc02Wvy7SpCg5v6cbO-5" value="" style="html=1;points=[];perimeter=orthogonalPerimeter;outlineConnect=0;targetShapes=umlLifeline;portConstraint=eastwest;newEdgeStyle={&quot;edgeStyle&quot;:&quot;elbowEdgeStyle&quot;,&quot;elbow&quot;:&quot;vertical&quot;,&quot;curved&quot;:0,&quot;rounded&quot;:0};" vertex="1" parent="qnjc02Wvy7SpCg5v6cbO-4">
          <mxGeometry x="45" y="110" width="10" height="40" as="geometry" />
        </mxCell>
        <mxCell id="qnjc02Wvy7SpCg5v6cbO-6" value="" style="html=1;points=[[0,0,0,0,5],[0,1,0,0,-5],[1,0,0,0,5],[1,1,0,0,-5]];perimeter=orthogonalPerimeter;outlineConnect=0;targetShapes=umlLifeline;portConstraint=eastwest;newEdgeStyle={&quot;curved&quot;:0,&quot;rounded&quot;:0};" vertex="1" parent="qnjc02Wvy7SpCg5v6cbO-4">
          <mxGeometry x="45" y="250" width="10" height="50" as="geometry" />
        </mxCell>
        <mxCell id="qnjc02Wvy7SpCg5v6cbO-7" value="" style="html=1;points=[[0,0,0,0,5],[0,1,0,0,-5],[1,0,0,0,5],[1,1,0,0,-5]];perimeter=orthogonalPerimeter;outlineConnect=0;targetShapes=umlLifeline;portConstraint=eastwest;newEdgeStyle={&quot;curved&quot;:0,&quot;rounded&quot;:0};" vertex="1" parent="qnjc02Wvy7SpCg5v6cbO-4">
          <mxGeometry x="45" y="400" width="10" height="50" as="geometry" />
        </mxCell>
        <mxCell id="qnjc02Wvy7SpCg5v6cbO-8" value="c: characters" style="html=1;verticalAlign=bottom;endArrow=open;dashed=1;endSize=8;curved=0;rounded=0;" edge="1" parent="qnjc02Wvy7SpCg5v6cbO-4" target="qnjc02Wvy7SpCg5v6cbO-2">
          <mxGeometry relative="1" as="geometry">
            <mxPoint x="55" y="450" as="sourcePoint" />
            <mxPoint x="-120" y="450" as="targetPoint" />
            <Array as="points" />
          </mxGeometry>
        </mxCell>
        <mxCell id="qnjc02Wvy7SpCg5v6cbO-9" value="getNeighbours()" style="html=1;verticalAlign=bottom;endArrow=block;edgeStyle=elbowEdgeStyle;elbow=vertical;curved=0;rounded=0;" edge="1" parent="1" source="qnjc02Wvy7SpCg5v6cbO-2" target="qnjc02Wvy7SpCg5v6cbO-5">
          <mxGeometry relative="1" as="geometry">
            <mxPoint x="195" y="130" as="sourcePoint" />
            <Array as="points">
              <mxPoint x="200" y="150" />
              <mxPoint x="180" y="120" />
            </Array>
          </mxGeometry>
        </mxCell>
        <mxCell id="qnjc02Wvy7SpCg5v6cbO-10" value="n: Neighbours" style="html=1;verticalAlign=bottom;endArrow=open;dashed=1;endSize=8;edgeStyle=elbowEdgeStyle;elbow=vertical;curved=0;rounded=0;" edge="1" parent="1" target="qnjc02Wvy7SpCg5v6cbO-2">
          <mxGeometry relative="1" as="geometry">
            <mxPoint x="90" y="280" as="targetPoint" />
            <Array as="points" />
            <mxPoint x="265" y="190" as="sourcePoint" />
          </mxGeometry>
        </mxCell>
        <mxCell id="qnjc02Wvy7SpCg5v6cbO-11" value="r2: Gas Room" style="shape=umlLifeline;perimeter=lifelinePerimeter;whiteSpace=wrap;html=1;container=1;dropTarget=0;collapsible=0;recursiveResize=0;outlineConnect=0;portConstraint=eastwest;newEdgeStyle={&quot;curved&quot;:0,&quot;rounded&quot;:0};" vertex="1" parent="1">
          <mxGeometry x="400" y="40" width="100" height="640" as="geometry" />
        </mxCell>
        <mxCell id="qnjc02Wvy7SpCg5v6cbO-12" value="" style="html=1;points=[[0,0,0,0,5],[0,1,0,0,-5],[1,0,0,0,5],[1,1,0,0,-5]];perimeter=orthogonalPerimeter;outlineConnect=0;targetShapes=umlLifeline;portConstraint=eastwest;newEdgeStyle={&quot;curved&quot;:0,&quot;rounded&quot;:0};" vertex="1" parent="qnjc02Wvy7SpCg5v6cbO-11">
          <mxGeometry x="45" y="180" width="10" height="40" as="geometry" />
        </mxCell>
        <mxCell id="qnjc02Wvy7SpCg5v6cbO-13" value="" style="html=1;points=[[0,0,0,0,5],[0,1,0,0,-5],[1,0,0,0,5],[1,1,0,0,-5]];perimeter=orthogonalPerimeter;outlineConnect=0;targetShapes=umlLifeline;portConstraint=eastwest;newEdgeStyle={&quot;curved&quot;:0,&quot;rounded&quot;:0};" vertex="1" parent="qnjc02Wvy7SpCg5v6cbO-11">
          <mxGeometry x="45" y="320" width="10" height="40" as="geometry" />
        </mxCell>
        <mxCell id="qnjc02Wvy7SpCg5v6cbO-14" value="" style="html=1;points=[[0,0,0,0,5],[0,1,0,0,-5],[1,0,0,0,5],[1,1,0,0,-5]];perimeter=orthogonalPerimeter;outlineConnect=0;targetShapes=umlLifeline;portConstraint=eastwest;newEdgeStyle={&quot;curved&quot;:0,&quot;rounded&quot;:0};" vertex="1" parent="qnjc02Wvy7SpCg5v6cbO-11">
          <mxGeometry x="45" y="490" width="10" height="20" as="geometry" />
        </mxCell>
        <mxCell id="qnjc02Wvy7SpCg5v6cbO-15" value="addNeighbours(n)" style="html=1;verticalAlign=bottom;endArrow=block;curved=0;rounded=0;" edge="1" parent="1">
          <mxGeometry width="80" relative="1" as="geometry">
            <mxPoint x="95" y="220" as="sourcePoint" />
            <mxPoint x="445" y="220" as="targetPoint" />
          </mxGeometry>
        </mxCell>
        <mxCell id="qnjc02Wvy7SpCg5v6cbO-16" value="" style="html=1;verticalAlign=bottom;endArrow=open;dashed=1;endSize=8;curved=0;rounded=0;" edge="1" parent="1">
          <mxGeometry relative="1" as="geometry">
            <mxPoint x="445" y="260" as="sourcePoint" />
            <mxPoint x="95" y="260" as="targetPoint" />
          </mxGeometry>
        </mxCell>
        <mxCell id="qnjc02Wvy7SpCg5v6cbO-17" value="getItems()" style="html=1;verticalAlign=bottom;endArrow=block;curved=0;rounded=0;entryX=0;entryY=0;entryDx=0;entryDy=5;" edge="1" parent="1" source="qnjc02Wvy7SpCg5v6cbO-2" target="qnjc02Wvy7SpCg5v6cbO-6">
          <mxGeometry relative="1" as="geometry">
            <mxPoint x="100" y="295" as="sourcePoint" />
          </mxGeometry>
        </mxCell>
        <mxCell id="qnjc02Wvy7SpCg5v6cbO-18" value="i: items" style="html=1;verticalAlign=bottom;endArrow=open;dashed=1;endSize=8;curved=0;rounded=0;" edge="1" parent="1" source="qnjc02Wvy7SpCg5v6cbO-6" target="qnjc02Wvy7SpCg5v6cbO-2">
          <mxGeometry relative="1" as="geometry">
            <mxPoint x="310" y="360" as="sourcePoint" />
            <mxPoint x="100" y="360" as="targetPoint" />
            <Array as="points">
              <mxPoint x="230" y="340" />
              <mxPoint x="220" y="340" />
            </Array>
          </mxGeometry>
        </mxCell>
        <mxCell id="qnjc02Wvy7SpCg5v6cbO-19" value="" style="html=1;verticalAlign=bottom;endArrow=open;dashed=1;endSize=8;curved=0;rounded=0;" edge="1" parent="1">
          <mxGeometry relative="1" as="geometry">
            <mxPoint x="445" y="400" as="sourcePoint" />
            <mxPoint x="95" y="400" as="targetPoint" />
          </mxGeometry>
        </mxCell>
        <mxCell id="qnjc02Wvy7SpCg5v6cbO-20" value="addItems(i)" style="html=1;verticalAlign=bottom;endArrow=block;curved=0;rounded=0;" edge="1" parent="1" source="qnjc02Wvy7SpCg5v6cbO-2">
          <mxGeometry width="80" relative="1" as="geometry">
            <mxPoint x="95" y="360" as="sourcePoint" />
            <mxPoint x="445" y="360" as="targetPoint" />
          </mxGeometry>
        </mxCell>
        <mxCell id="qnjc02Wvy7SpCg5v6cbO-21" value="getCharacters()" style="html=1;verticalAlign=bottom;endArrow=block;curved=0;rounded=0;entryX=0;entryY=0;entryDx=0;entryDy=0;entryPerimeter=0;" edge="1" parent="1" source="qnjc02Wvy7SpCg5v6cbO-2" target="qnjc02Wvy7SpCg5v6cbO-7">
          <mxGeometry relative="1" as="geometry">
            <mxPoint x="60" y="445" as="sourcePoint" />
            <Array as="points">
              <mxPoint x="220" y="440" />
              <mxPoint x="250" y="440" />
            </Array>
          </mxGeometry>
        </mxCell>
        <mxCell id="qnjc02Wvy7SpCg5v6cbO-22" value="addCharacter(c)" style="html=1;verticalAlign=bottom;endArrow=block;curved=0;rounded=0;" edge="1" parent="1" source="qnjc02Wvy7SpCg5v6cbO-2" target="qnjc02Wvy7SpCg5v6cbO-14">
          <mxGeometry width="80" relative="1" as="geometry">
            <mxPoint x="60" y="868" as="sourcePoint" />
            <mxPoint x="460" y="870" as="targetPoint" />
          </mxGeometry>
        </mxCell>
        <mxCell id="qnjc02Wvy7SpCg5v6cbO-23" value="" style="html=1;verticalAlign=bottom;endArrow=open;dashed=1;endSize=8;curved=0;rounded=0;" edge="1" parent="1">
          <mxGeometry relative="1" as="geometry">
            <mxPoint x="445" y="549.5" as="sourcePoint" />
            <mxPoint x="95" y="549.5" as="targetPoint" />
          </mxGeometry>
        </mxCell>
        <mxCell id="qnjc02Wvy7SpCg5v6cbO-24" value="gc: GameController" style="shape=umlLifeline;perimeter=lifelinePerimeter;whiteSpace=wrap;html=1;container=1;dropTarget=0;collapsible=0;recursiveResize=0;outlineConnect=0;portConstraint=eastwest;newEdgeStyle={&quot;curved&quot;:0,&quot;rounded&quot;:0};" vertex="1" parent="1">
          <mxGeometry x="580" y="40" width="110" height="640" as="geometry" />
        </mxCell>
        <mxCell id="qnjc02Wvy7SpCg5v6cbO-25" value="" style="html=1;points=[[0,0,0,0,5],[0,1,0,0,-5],[1,0,0,0,5],[1,1,0,0,-5]];perimeter=orthogonalPerimeter;outlineConnect=0;targetShapes=umlLifeline;portConstraint=eastwest;newEdgeStyle={&quot;curved&quot;:0,&quot;rounded&quot;:0};" vertex="1" parent="qnjc02Wvy7SpCg5v6cbO-24">
          <mxGeometry x="50" y="530" width="10" height="20" as="geometry" />
        </mxCell>
        <mxCell id="qnjc02Wvy7SpCg5v6cbO-28" value="" style="html=1;points=[[0,0,0,0,5],[0,1,0,0,-5],[1,0,0,0,5],[1,1,0,0,-5]];perimeter=orthogonalPerimeter;outlineConnect=0;targetShapes=umlLifeline;portConstraint=eastwest;newEdgeStyle={&quot;curved&quot;:0,&quot;rounded&quot;:0};" vertex="1" parent="qnjc02Wvy7SpCg5v6cbO-24">
          <mxGeometry x="50" y="570" width="10" height="40" as="geometry" />
        </mxCell>
        <mxCell id="qnjc02Wvy7SpCg5v6cbO-26" value="removeRoom(r1)" style="html=1;verticalAlign=bottom;endArrow=block;curved=0;rounded=0;" edge="1" parent="1">
          <mxGeometry x="0.0019" width="80" relative="1" as="geometry">
            <mxPoint x="95" y="570" as="sourcePoint" />
            <mxPoint x="630" y="570" as="targetPoint" />
            <mxPoint as="offset" />
          </mxGeometry>
        </mxCell>
        <mxCell id="qnjc02Wvy7SpCg5v6cbO-27" value="" style="html=1;verticalAlign=bottom;endArrow=open;dashed=1;endSize=8;curved=0;rounded=0;" edge="1" parent="1">
          <mxGeometry relative="1" as="geometry">
            <mxPoint x="635" y="590" as="sourcePoint" />
            <mxPoint x="95" y="590" as="targetPoint" />
            <mxPoint as="offset" />
          </mxGeometry>
        </mxCell>
        <mxCell id="qnjc02Wvy7SpCg5v6cbO-29" value="addRoom(r2)" style="html=1;verticalAlign=bottom;endArrow=block;curved=0;rounded=0;entryX=0;entryY=0;entryDx=0;entryDy=5;" edge="1" target="qnjc02Wvy7SpCg5v6cbO-28" parent="1" source="qnjc02Wvy7SpCg5v6cbO-2">
          <mxGeometry relative="1" as="geometry">
            <mxPoint x="560" y="615" as="sourcePoint" />
          </mxGeometry>
        </mxCell>
        <mxCell id="qnjc02Wvy7SpCg5v6cbO-30" value="" style="html=1;verticalAlign=bottom;endArrow=open;dashed=1;endSize=8;curved=0;rounded=0;exitX=0;exitY=1;exitDx=0;exitDy=-5;" edge="1" source="qnjc02Wvy7SpCg5v6cbO-28" parent="1" target="qnjc02Wvy7SpCg5v6cbO-2">
          <mxGeometry relative="1" as="geometry">
            <mxPoint x="560" y="685" as="targetPoint" />
          </mxGeometry>
        </mxCell>
        <mxCell id="BxhSKqiskLF0cWdj5-sp-1" value="&lt;b&gt;sd &lt;/b&gt;Use Camambert" style="shape=umlFrame;whiteSpace=wrap;html=1;pointerEvents=0;width=170;height=30;" vertex="1" parent="1">
          <mxGeometry x="20" width="680" height="710" as="geometry" />
        </mxCell>
      </root>
    </mxGraphModel>
  </diagram>
</mxfile>
